<svg version="1.2" xmlns="http://www.w3.org/2000/svg" viewBox="0 0 512 512" width="512" height="512">
	<title>HTML-svg</title>
	<style>
		.s0 { fill: #e34f26 } 
		.s1 { fill: #ef652a } 
		.s2 { fill: #ebebeb } 
		.s3 { fill: #ffffff } 
	</style>
	<path id="Layer" class="s0" d="m71 460l-41-460h451l-41 460-185 52"/>
	<path id="Layer" class="s1" d="m256 472l149-41 35-394h-184"/>
	<path id="Layer" class="s2" d="m256 208h-75l-5-58h80v-56h-1-141l1 15 14 156h127zm0 147h-1l-63-17-4-45h-30-26l7 89 116 32h1z"/>
	<path id="Layer" class="s3" d="m255 208v57h70l-7 73-63 17v59l116-32 1-10 13-149 2-15h-16zm0-114v35 21h137l1-12 3-29 1-15z"/>
</svg>