<svg version="1.2" xmlns="http://www.w3.org/2000/svg" viewBox="0 0 608 596" width="608" height="596">
	<title>Jest JS-svg</title>
	<style>
		.s0 { fill: #9a425b } 
		.s1 { fill: #ffffff } 
	</style>
	<path id="Layer" class="s0" d="m457 292.8c0-22.8-18.5-41.2-41.2-41.3q-2.2 0.1-4.4 0.3l56.6-166.9h-240.4l56.5 166.7c-22.7-1.3-42.2 16-43.6 38.7-1.2 18.8 10.6 36 28.6 41.7-8.8 15.1-19.7 28.8-32.4 40.8-17.1 16-36.6 28.3-57.7 35.8-25.2-12.9-37-41.7-26.3-66.8 1.2-2.9 2.4-5.8 3.6-8.7 22.2-5.1 35.9-27.3 30.7-49.5-5.2-22.1-27.3-35.9-49.5-30.7-22.1 5.2-35.9 27.4-30.7 49.5 2.3 9.9 8.2 18.6 16.5 24.4-10.2 23.2-25.2 47.5-29.9 75.6-5.6 33.8 0 69.6 29.2 89.8 67.9 47.1 141.7-29.2 219.5-48.4 28.2-6.9 59.1-5.8 84-20.2 18.6-10.8 30.9-28.7 34.4-48.8 3.5-19.9-1.6-39.6-13.1-55.7 6.2-7.4 9.6-16.7 9.6-26.3z"/>
	<path id="Layer" fill-rule="evenodd" class="s1" d="m459.5 319.4c10.2 17 14.4 37.1 10.9 57.1-4 23.4-18.4 43.7-39.3 55.8-18 10.5-38.4 13.4-58.1 16.3-10 1.4-19.4 2.7-28.5 5-24.5 6-49.3 18.4-73.3 30.3-33.4 16.6-67.5 33.5-101.2 33.5-17.9 0-35.6-4.8-53.2-16.9-28.8-20-40.7-55.4-33.3-99.7 3.7-22.3 13.5-42.4 22.1-60.1q2.8-5.7 5.3-11.2c-9.4-9.3-15.2-22.2-15.2-36.5 0-28.3 22.9-51.2 51.2-51.2 28.3 0 51.2 22.9 51.2 51.2 0 21.8-13.8 41.2-34.4 48.4l-1.1 2.8-0.7 1.5c-8 18.8-0.3 40.4 17.9 51.8 18.1-7.1 34.9-17.9 50-32.1 9.3-8.7 17.6-18.5 24.8-29.1-15.1-9.4-24.3-25.8-24.3-43.6 0.1-24 16.7-44.7 40.1-50l-56.9-167.8h268.5l-56.8 167.5c24.2 4.6 41.8 25.7 41.8 50.4 0 9.4-2.6 18.6-7.5 26.6zm-343.8-26.4c0 5.4 1.5 10.7 4.1 15.4 3.7 6.4 9.4 11.2 16.2 13.8 3.5 1.3 7.2 2 10.8 2 17.2 0 31.2-14 31.2-31.2 0-17.1-13.9-31.1-31.1-31.1-17.2 0-31.1 14-31.1 31.1zm134.7-0.2c0 17.2 13.9 31.1 31.1 31.1 14.4 0 26.9-9.9 30.3-23.9 2.2-9.2 0.1-18.9-5.8-26.3-5.7-7.4-14.5-12.1-24.5-12.1-17.2 0-31.1 14-31.1 31.1q0 0.1 0 0.1zm97.3-103.4l-32.2 65.1c7.5 6.6 12.8 15.3 15.5 24.9q17.6-0.6 35.2 0c2.4-9 7.3-17.2 14.1-23.7zm-56.3 53.2q3.4 0.6 6.7 1.8l49.7-100.5 49.5 101.1q3.1-1.2 6.4-2l50.1-147.9h-212.3zm127.1 19.2c-11.4-1-22.4 4.2-28.7 13.6-3.5 5.1-5.4 11.2-5.4 17.4 0 17.2 14 31.1 31.1 31.1 6.4 0 12.6-1.9 17.8-5.6 8.4-5.8 13.4-15.3 13.4-25.5-0.1-16.1-12.3-29.5-28.2-31zm26.3 73.1c-8.6 6-18.8 9.2-29.3 9.2-25.6-0.1-47.3-19.1-50.7-44.5q-16.3-0.6-32.6 0-0.1 0.4-0.2 0.7c-4.2 28.1-30.3 47.4-58.3 43.2-8.5 13.4-18.7 25.7-30.3 36.6-18.3 17.3-38.9 30.1-61.3 38l-4.1 1.5-3.8-2c-28.3-14.5-41.8-45.3-33.2-73.6-4.7-0.5-9.1-1.6-13.3-3.3q-2.1 4.4-4.2 8.8c-8.5 17.3-17.2 35.2-20.4 54.6-3.5 21-4.8 59.2 25 79.9 40.7 28.2 83.9 6.8 133.9-18.1 25-12.4 50.8-25.2 77.5-31.8 10.1-2.5 20.4-4 30.4-5.4 18.6-2.7 36.2-5.3 50.9-13.8 15.8-9.1 26.5-24.3 29.6-41.8 2.2-13 0.2-26.4-5.6-38.2z"/>
</svg>