<svg version="1.2" xmlns="http://www.w3.org/2000/svg" viewBox="0 0 623 623" width="623" height="623">
	<title>Sass-svg</title>
	<style>
		.s0 { fill: #cd6799 } 
	</style>
	<path id="Layer" fill-rule="evenodd" class="s0" d="m595.4 384.2c-0.9 23-22 32.4-25.9 33.1-2.8 0.4-4.4 0.5-4.8-1.7-0.3-1.5 0.8-2.2 4.1-4.3 3.3-2.1 13.3-8.9 15.1-21.4 1.8-12.5-7.6-42.2-55.2-47.8-22.2-2.6-39.6 0.5-53.1 6.1 2.5 6.5 4.3 13.2 4.6 20 0.6 14.9-9.7 25.9-20.4 33.8-6.3 4.6-12.9 7.7-18.5 9.5-4.4 1.9-10.4 3.9-14.6 3-9.3-1.9-14.2-10.1-7.9-28.3 3.5-9.8 13.3-24.8 29.2-37.7-3.6-7.4-7.7-15-9.7-22-4.1-13.8-5.3-22.1-5.3-22.1 0 0-13.1 27.1-30 51.8-1 1.4-1.9 2.8-2.9 4.2 3.3 7.7 6 15.9 6.3 24.1 0.6 14.9-5.9 26.2-16.6 34.1-5.8 4.3-12 7.2-17.3 9.1-3.4 1.5-10.3 3.9-20.1 4.6-5.3 0.3-10.5 0-13.4-2.2-4-3-4.5-6.7-2.4-11.8 1.8-4.3 14.8-19.2 25.7-32.2 3.1-3.6 5.9-7.3 8.5-10.7-0.1-0.1-0.1-0.1-0.1-0.1 0 0 2-2.5 5.2-7-4-8.6-9-17.5-11.4-25.6-4.1-13.8-5.3-22.1-5.3-22.1 0 0-13.3 34-27.1 61.2-10.7 21.1-17.9 33.8-21.1 39.4 0 0.1 0 0.2 0 0.2 0 0-0.5 0.8-1.3 2.1-0.4 0.7-0.6 1-0.6 1 0 0 0 0 0-0.1-3.6 5.3-11.7 15.7-19.7 15.7-22 0-13.9-44.6-13.9-44.6 0 0-6.5 16.5-13.7 30.7-5.9 11.6-11.2 21.4-23 21.4-3.4 0-8.7-0.1-13.2-4.3-10.1-9.6-17.8-34-16.3-52.8 1.2-16 3.7-27.1 7.1-36.4-6 3.2-13 7.1-20.1 11.3-3.6 2.1-7.3 4.3-10.9 6.4 0.2 0.2 0.3 0.4 0.4 0.6 9.1 17.5 11.5 55.7-8.2 85.1-19.7 29.4-56.4 47.2-92.1 37.3-11.5-3.2-28.9-27-13.9-60.2 13.2-29.3 66.2-57 80.1-63.9 1.1-0.6 2.4-1.3 3.8-2.1-27.8-24.3-97.3-57.1-107-107.5-2.7-14.2 3.9-48.1 45.6-87.1 35.1-32.8 83.9-58 128.9-74 75.7-26.9 155.7-11 167.8 37.2 12.1 47.5-29.1 104.2-81.8 124.6-47.1 18.2-86 15.3-102 10.1-18.1-5.9-28.8-17.9-31.4-24.7-1-2.6-2.8-7.1 0-8.6 1.7-1 2.4-0.7 7 4.3 4.4 4.8 21.8 17.6 55 13.9 87-9.8 139.5-77.4 122.9-113.8-11.6-25.5-78.6-37-162.8 4.5-102.3 51-107.8 93-108.7 109-2.4 43.9 54.2 67 84.8 99.7 0.4 0.4 0.8 0.9 1.2 1.3 5.7-3.1 11.8-6.4 17.7-9.7 15.5-8.5 30-16.4 36.8-20.1 10.8-15.6 32.6-32.9 48.4-32.9 25.3 0 16.6 36.2 16.6 36.2 0 0 0.5-1.7 1.2-1.7 0.7 0 3.5-4.8 11.3-1.9 8 2.9 6.2 8.5 6.2 9.1 0.1 1.1-9.4 33.3-13.4 54-1.9 9.8-0.8 17-0.2 17 0.8 0 2.4-2.5 3.9-5.2 0-0.1 0-0.1 0-0.1 0 0 1.1-2 3-5.7 0.3-0.5 0.4-0.8 0.4-0.8 2.2-4.3 5.3-10.6 8.9-18.5 7-15.4 33.7-75 36-81.6 2.3-6.6 3.5-13.4 4.6-16.3 1.1-2.9 10.6-5.1 21.6-5 11 0.1 12.1 4.8 12.2 5.8 0.1 1-5.3 14.1-6.5 23.3-1.2 9.2 0 13.9 1 21.6 0.7 5.1 3.9 11.5 7.6 18.8 11.5-18.7 31.6-54.4 33.5-64.4 1.4-6.8 3.5-13.4 4.6-16.3 1.1-2.9 10.6-5.1 21.6-5 11 0.1 12.1 4.8 12.2 5.8 0.1 1-5.3 14.1-6.5 23.3-1.2 9.2 0 13.9 1 21.6 0.9 6.6 6 15.6 11.1 25.7 13.9-6.8 30.5-11.4 49.6-11.5 49.5-0.3 77.5 31.8 76 61.2zm-426.9-4.4q-1.2 0.8-2.4 1.5c0 0-0.4 0.2-1.1 0.6-4.1 2.5-7.5 4.5-9.8 5.9-10.1 6.3-25.3 16.6-37.1 27.7-19.4 18.2-23.4 43.6-13.2 49.5 9.5 5.5 31.5-1 47.3-18.2 16.6-18.1 23.4-41 16.3-67zm112.6-61.9c-2.3-3.9-11.8-0.7-20.4 8.9-5.3 6-14.4 21.4-18.7 34.3-8.5 25.7-4.8 51.7 1.2 53.3 7 1.9 18.5-32.4 24-45.8 3.4-8.4 16.8-45.6 13.9-50.7zm102.4 66.3c0-0.4 0-0.9 0-1.3-3.4 4.5-6.6 8.5-9.3 11.9-4.7 5.8-16.6 18.6-16.6 18.6 0 0-1.7 1.6-1 2 1 0.6 3.2-0.2 5.5-1.4 6.6-4.2 21.4-14.5 21.4-29.8zm74-16.4c0.1-2.9-0.6-6-1.6-9.2-8.9 7.9-14.1 16.1-16.3 21-5.7 12.5-6 16.5-4.3 17.7 8.3-3 22.1-10.2 22.2-29.5z"/>
	<g id="Layer">
	</g>
	<g id="Layer">
	</g>
	<g id="Layer">
	</g>
	<g id="Layer">
	</g>
	<g id="Layer">
	</g>
	<g id="Layer">
	</g>
</svg>