<svg xmlns="http://www.w3.org/2000/svg" xmlns:xlink="http://www.w3.org/1999/xlink" width="606" height="606" fill="none" xmlns:v="https://vecta.io/nano"><style><![CDATA[.B{fill:#fff}.C{stroke-width:1.333}.D{stroke-miterlimit:10}.E{stroke:#1a2e35}.F{opacity:.5}.G{fill:#04d361}.H{stroke-linejoin:round}.I{fill:#1a2e35}.J{opacity:.2}.K{stroke-linecap:round}]]></style><g opacity=".8"><mask id="A" maskUnits="userSpaceOnUse" x="0" y="0" width="606" height="606"><path d="M0 0h606v606H0V0z" class="B"/></mask><g mask="url(#A)"><path d="M583.844 297.946c0 11.647-1.272 23.246-4.036 34.517a126.95 126.95 0 0 1-3.248 11.042l-1.115 3.115-.968 2.533c-.098.229-.183.461-.28.691l-1.079 2.606-.182.424-1.115 2.533-.509 1.103a74.28 74.28 0 0 1-1.054 2.23l-1.152 2.339-.424.824-1.029 2-.837 1.538a160.32 160.32 0 0 1-4.036 7.031l-1.744 2.824a24.85 24.85 0 0 1-.426.691l-2.072 3.199-1.733 2.582-1.54 2.242a12.59 12.59 0 0 1-.338.473l-1.637 2.327-2.06 2.836c-.145.194-.279.387-.425.57l-2.398 3.199-1.468 1.891-2.678 3.43-2.617 3.248-.292.352-2.641 3.211c-.256.328-.535.655-.8.97l-2.462 2.933-7.186 8.363-15.042 16.835-12.968 13.683c-21.113 21.683-43.972 41.911-68.83 58.031-3.09 1.999-6.205 3.951-9.355 5.805l-3.456 2.024-.592.339-3.577 2-3.684 1.988-1.672.873c-2.413 1.26-4.848 2.472-7.309 3.636l-3.976 1.83-3.696 1.636-1.515.642c-1.126.485-2.267.946-3.405 1.406a185.25 185.25 0 0 1-6.643 2.533l-2.569.921-1.454.497-2.4.788-2.084.667c-.025.011-.048.011-.074.024l-4.108 1.236c-2.17.63-4.339 1.212-6.52 1.77l-4.34 1.03-4.121.897c-.109.024-.218.048-.326.06l-4.316.825-2.204.375-2.231.352c-.667.108-1.346.206-2.011.291l-2.45.339c-8.617 1.103-17.259 1.563-25.9 1.466-.521 0-1.03-.012-1.55-.024-7.831-.146-15.66-.752-23.454-1.757l-1.709-.23-2.945-.413-2.29-.363c-3.236-.509-6.448-1.091-9.66-1.745-.715-.134-1.418-.279-2.121-.437l-6.472-1.442-4.303-1.054-2.145-.558-2.145-.57c-2.848-.763-5.684-1.587-8.508-2.448-3.285-.995-6.545-2.048-9.793-3.163l-3.539-1.224c-3.649-1.297-7.297-2.668-10.895-4.085l-1.977-.8-1.588-.69-1.066-.485c-2.351-1.067-4.909-2.316-7.66-3.721l-1.406-.727-5.248-2.812-12.12-6.896C144.349 478.437 70.114 424.891 52.686 404.59l-2.606-3.127-1.976-2.509c-.594-.763-1.176-1.527-1.745-2.315-.509-.679-1.006-1.369-1.491-2.072l-1.37-1.952a1.01 1.01 0 0 0-.097-.145l-1.624-2.448-1.503-2.376a36.57 36.57 0 0 1-.703-1.151l-1.6-2.691c0-.012 0-.012-.012-.024l-1.66-2.994c-.945-1.757-1.854-3.528-2.703-5.32l-.654-1.394a110.9 110.9 0 0 1-4.533-11.26c-.473-1.333-.897-2.678-1.309-4.024-.521-1.733-.994-3.478-1.43-5.223l-.242-1.043c-.218-.909-.424-1.83-.606-2.751-.279-1.285-.509-2.569-.727-3.866-.049-.315-.109-.63-.145-.945a54.07 54.07 0 0 1-.291-2.012l-.291-2.412c-.036-.279-.061-.547-.085-.812-.073-.691-.121-1.382-.182-2.061a.74.74 0 0 0-.012-.169c-.061-.825-.109-1.637-.133-2.449-.012-.084-.012-.158-.012-.23l-.073-2.581c-.005-.322.005-.64.002-.962l.004-1.512a86.15 86.15 0 0 1 .127-3.793l.182-2.46c.145-1.624.339-3.248.582-4.86a54.75 54.75 0 0 1 .412-2.46c.291-1.637.642-3.273 1.054-4.909 1.091-4.303 2.485-8.448 4.181-12.423 1.285-3.066 2.739-6.011 4.351-8.896.121-.242.267-.497.412-.739 6.533-11.502 15.417-21.707 25.428-31.161 1.066-1.018 2.145-2.012 3.248-2.994l3.492-3.126c.072-.061.144-.134.217-.194l5.709-4.885 9.029-7.344c.097-.085.206-.158.303-.243l7.854-6.145 12.301-9.526 3.2-2.509 3.478-2.763c10.86-8.702 20.217-17.962 28.919-27.44l5.017-5.563 2.352-2.678c11.065-12.605 21.355-25.356 32.809-37.391 2.727-2.872 5.514-5.696 8.387-8.472 2.424-2.314 4.884-4.593 7.441-6.823 2.921-2.57 5.927-5.078 9.078-7.502a172.28 172.28 0 0 1 13.684-9.624l3.551-2.23c120.848-75.107 209.797-50.589 269.137 0a226.23 226.23 0 0 1 12.919 11.854c2.521 2.436 4.958 4.957 7.321 7.502.268.267.509.545.763.836 1.661 1.77 3.273 3.551 4.848 5.345l1.394 1.6 2.062 2.412 2.483 2.969 1.54 1.891c3.308 4.072 6.459 8.205 9.465 12.362l1.794 2.497c4.145 5.818 7.999 11.696 11.576 17.538l1.515 2.496 1.489 2.509 1.444 2.485 1.418 2.484 1.38 2.485a73.94 73.94 0 0 1 1.347 2.46l1.32 2.461 1.284 2.448 1.249 2.424 1.212 2.424c1.589 3.2 3.09 6.363 4.522 9.478l2.072 4.678c3.017 6.933 5.6 13.562 7.707 19.731.014.025.026.061.026.085l.594 1.758.592 1.793.437 1.37.643 2.048.655 2.218 1.15 4.085.909 3.466c.062.218.121.424.171.642.048.182.084.364.132.546l.497 2.048a169.39 169.39 0 0 1 1.212 5.442l.594 2.969.109.558.509 2.8.606 3.757c.157.945.291 1.903.425 2.86.011.133.035.279.06.424l.243 1.915.193 1.588.571 5.769.108 1.309.145 2.194.133 2.448.085 1.879.074 2.775.035 3.224z" class="G"/><mask id="B" maskUnits="userSpaceOnUse" x="22" y="63" width="562" height="480"><path d="M22.859 63.031h560.986v479.594H22.859V63.031z" class="B"/></mask><g mask="url(#B)" class="B"><g opacity=".7"><path d="M583.844 297.946c0 11.647-1.272 23.246-4.036 34.517a126.95 126.95 0 0 1-3.248 11.042l-1.115 3.115-.968 2.533c-.099.229-.183.461-.28.691l-1.079 2.606-.182.424-1.115 2.533-.509 1.103c-.339.75-.691 1.491-1.054 2.23l-1.152 2.339-.424.824-1.029 2-.837 1.538a160.32 160.32 0 0 1-4.036 7.031l-1.744 2.824a24.85 24.85 0 0 1-.426.691l-2.072 3.199-1.734 2.582-1.539 2.242a12.59 12.59 0 0 1-.338.473l-1.637 2.327-2.061 2.836c-.144.194-.278.387-.424.57l-2.398 3.199-1.468 1.891-2.679 3.43-2.616 3.248-.293.352-2.64 3.211c-.256.328-.535.655-.8.97l-2.462 2.933-7.186 8.363-15.042 16.835-12.968 13.683c-21.114 21.683-43.972 41.911-68.83 58.031a261.86 261.86 0 0 1-9.355 5.805l-3.456 2.024-.592.339-3.577 2-3.685 1.988-1.671.873c-2.413 1.26-4.848 2.472-7.309 3.636l-3.976 1.83-3.696 1.636-1.515.642c-1.126.485-2.267.946-3.405 1.406a185.25 185.25 0 0 1-6.643 2.533l-2.569.921-1.455.497-2.399.788-2.084.667c-.025.011-.048.011-.074.024l-4.109 1.236c-2.169.63-4.338 1.212-6.519 1.77l-4.34 1.03-4.121.897c-.109.024-.218.048-.326.06l-4.316.825-2.204.375-2.232.352a60.79 60.79 0 0 1-2.01.291l-2.45.339c-8.617 1.103-17.259 1.563-25.9 1.466-.521 0-1.031-.012-1.55-.024-7.831-.146-15.661-.752-23.454-1.757l-1.709-.23-2.945-.413-2.291-.363c-3.236-.509-6.447-1.091-9.659-1.745-.715-.134-1.418-.279-2.121-.437l-6.472-1.442-4.303-1.054-2.145-.558-2.145-.57c-2.849-.763-5.685-1.587-8.509-2.448a282.56 282.56 0 0 1-9.793-3.163l-3.539-1.224c-3.648-1.297-7.296-2.668-10.894-4.085l-1.977-.8-1.588-.69-1.066-.485c-2.352-1.067-4.909-2.316-7.66-3.721l-1.406-.727-5.248-2.812-12.12-6.896C144.349 478.437 70.114 424.891 52.685 404.59l-2.606-3.127-1.975-2.509c-.594-.763-1.176-1.527-1.745-2.315-.509-.679-1.006-1.369-1.491-2.072l-1.37-1.952a1.01 1.01 0 0 0-.097-.145l-1.624-2.448-1.503-2.376c-.241-.376-.473-.763-.703-1.151l-1.6-2.691c0-.012 0-.012-.012-.024l-1.66-2.994c-.945-1.757-1.854-3.528-2.703-5.32l-.655-1.394a110.9 110.9 0 0 1-4.533-11.26c-.473-1.333-.897-2.678-1.309-4.024-.521-1.733-.994-3.478-1.43-5.223l-.242-1.043a69.38 69.38 0 0 1-.606-2.751c-.279-1.285-.521-2.569-.727-3.866-.049-.315-.109-.63-.146-.945a54.28 54.28 0 0 1-.291-2.012c-.109-.8-.206-1.612-.29-2.412-.038-.279-.062-.547-.086-.812-.073-.691-.121-1.382-.182-2.061 0-.06 0-.121-.012-.169-.061-.825-.109-1.637-.133-2.449-.012-.084-.012-.158-.012-.23l-.073-2.581c-.036-2.097.012-4.182.133-6.267l.182-2.46c.145-1.624.339-3.248.582-4.86a54.75 54.75 0 0 1 .412-2.46 70.87 70.87 0 0 1 1.054-4.909c1.091-4.303 2.485-8.448 4.181-12.423 1.285-3.066 2.74-6.011 4.351-8.896.121-.242.267-.497.412-.739 6.533-11.502 15.417-21.707 25.428-31.161l1.721-1.612 1.527-1.382 3.492-3.126c.072-.061.144-.134.217-.194l5.709-4.885 9.029-7.344c.097-.085.206-.158.303-.243l7.854-6.145 3.951-3.054 8.351-6.472 3.2-2.509 3.478-2.763c10.86-8.702 20.216-17.962 28.919-27.44l5.017-5.563 2.352-2.678c11.065-12.605 21.356-25.356 32.808-37.391 2.727-2.872 5.516-5.696 8.387-8.472 2.424-2.314 4.885-4.593 7.442-6.823 2.921-2.57 5.927-5.078 9.079-7.502a172.06 172.06 0 0 1 13.682-9.624l3.552-2.23c120.848-75.107 209.797-50.589 269.136 0a226.25 226.25 0 0 1 12.92 11.854c2.521 2.436 4.957 4.957 7.321 7.502.268.267.509.545.763.836 1.661 1.77 3.273 3.551 4.848 5.345l1.394 1.6 2.062 2.412 2.483 2.969 1.539 1.891a276.55 276.55 0 0 1 9.466 12.362l1.794 2.497c4.145 5.818 7.999 11.696 11.576 17.538l1.515 2.496 1.489 2.509 1.444 2.485 1.418 2.484 1.38 2.485a73.94 73.94 0 0 1 1.347 2.46l1.32 2.461 1.284 2.448 1.249 2.424 1.212 2.424a285.92 285.92 0 0 1 4.522 9.478l2.072 4.678c3.017 6.933 5.6 13.562 7.707 19.731.014.025.026.061.026.085l.594 1.758.592 1.793.437 1.37.643 2.048.655 2.218 1.15 4.085.909 3.466c.062.218.121.424.171.642.048.182.083.364.132.546l.497 2.048a169.39 169.39 0 0 1 1.212 5.442l.594 2.969.109.558.509 2.8.606 3.757c.157.945.291 1.903.425 2.86.011.133.035.279.059.424l.244 1.915.193 1.588.571 5.769.108 1.309.145 2.194.133 2.448.085 1.879.074 2.775.035 3.224z"/></g></g></g><mask id="C" maskUnits="userSpaceOnUse" x="0" y="0" width="606" height="606"><path d="M0 0h606v606H0V0z" class="B"/></mask><g mask="url(#C)"><mask id="D" maskUnits="userSpaceOnUse" x="38" y="317" width="1" height="1"><path d="M38.794 317.698h.16v.161h-.16v-.161z" class="B"/></mask><g mask="url(#D)" class="I"><g class="J"><path d="M38.954 317.859c-.182-.267-.243-.158 0 0z"/></g></g><mask id="E" maskUnits="userSpaceOnUse" x="41" y="230" width="112" height="113"><path d="M41.949 230.074H152.522V342.465H41.949V230.074Z" class="B"/></mask><g mask="url(#E)"><g class="J"><path d="M152.312 307.17c-1.236 8.241-7.321 14.942-15.235 17.537l-3.006.981c-10.811 15.307-29.766 21.841-45.922 12.351l-4.727-2.775-13.235-15.733c-.049.013-.109.025-.157.036-4.194.873-8.933.232-12.035-2.727-.497 2.594-3.878 4.122-6.145 2.788s-2.557-5.042-.533-6.727c-2.666 2.353-6.787 1.273-9.357-1.297-.109-7.017.63-14.033 2.363-20.954 1.091-4.304 2.485-8.449 4.181-12.423 1.285-3.067 2.739-6.011 4.351-8.897a11.84 11.84 0 0 1 .412-.739c2.388-4.218 5.09-8.254 8.06-12.145l1.527-1.38 3.491-3.127c.073-.062.145-.135.218-.194l5.709-4.884 9.029-7.345c.097-.086.206-.158.303-.244l7.854-6.143 3.951-3.055c.8.097 1.576.279 2.327.545 3.236 1.128 3.794 4.097 6.036 6.132 2.981 2.727 5.841-1.853 10.435-1.707 14.12.436 8.641 14.919 15.538 13.101 29.779-7.855 24.773 30.24 11.829 38.601 7.635 6.328 14.217 10.508 12.738 20.424z" fill="#000"/></g></g><use xlink:href="#AG" class="B"/><use xlink:href="#AG" class="C D E"/><use xlink:href="#AH" class="I"/><use xlink:href="#AH" stroke="#fff" class="C D"/><path d="M39.07 309.596c-2.883 1.79-3.71 7.819-1.435 10.431 2.275 2.597 6.615.591 7.504-3.478.42 1.14 1.759 1.324 2.448.342.486-.704.507-1.8.169-2.551-.138-.314-.217-.182 0 0 1.475 1.173 4.018-.105 4.373-2.611-1.08 6.663 4.976 12.48 9.441 9.092-1.318 2.831.408 6.556 2.717 7.27 2.298.717 4.778-.643 6.983-2.153s4.463-3.235 6.875-3.339c2.104-.101 4.052 1.084 6.053 1.79 6.376 2.219 13.837-.723 18.714-7.406 3.223 5.515 11.162 3.485 13.291-3.382.447 3.214 2.648 5.662 5.102 5.694s4.929-2.352 5.769-5.546v.042c.054 3.042 2.768 4.532 4.707 2.574 2.479-2.495 4.014-7.08 2.794-10.751 3.304-.134 6.5-3.964 7-8.401.511-4.438-1.73-8.89-4.917-9.761 5.468-2.272 9.753-9.719 9.958-17.323.194-7.591-3.705-14.65-9.075-16.427-2.046-.673-4.438-.541-6.166 1.29-.636-4.326-2.601-8.191-5.494-10.132-4.609-3.114-11.021-.982-14.451 4.815 1.673-2.994 1.786-7.323.263-10.164-1.521-2.825-4.548-3.958-7.116-2.623-.553-4.639-4.136-7.942-7.641-7.04-3.494.902-6.327 5.861-6.027 10.558-.326-3.783-4.789-4.716-6.398-1.545.137.286-.068.117 0 0-2.227-4.678-6.76-7.08-10.967-5.714-4.474 1.468-8.231 7.086-8.805 13.212-3.085-2.814-7.588-2.692-10.901.303-3.312 2.981-5.221 8.656-4.643 13.728-3.481-3.436-9.337-1.561-11.724 3.75s-.742 12.83 3.291 15.053c-2.782.423-5.226 4.109-5.228 7.843.008 3.746 2.459 6.936 5.246 6.836-2.811.242-5.458 3.562-5.869 7.334-.41 3.786 1.468 7.558 4.161 8.39z" class="G"/><mask id="F" maskUnits="userSpaceOnUse" x="45" y="248" width="88" height="54"><path d="M45.175 248.149h87.069v53.616H45.175v-53.616z" class="B"/></mask><g mask="url(#F)" class="B"><g class="J"><path d="M85.242 292.215c-1.403-1.177-3.194-1.748-4.905-1.208s-3.285 2.311-3.675 4.504.624 4.611 2.304 5.028c2.043.508 4.14-1.778 6.226-1.529.745.089 1.424.499 2.149.703 2.989.839 6.016-1.848 8.557-4.373.893-.889 1.807-1.806 2.416-3.022s.854-2.813.325-3.985c-.738-1.634-2.555-1.769-4.075-1.456-3.049.631-6.014 2.375-8.442 4.968l.268-1.836-1.148 2.206zm43.777-5.971c-.804-.679-1.632-1.37-2.596-1.601a2.5 2.5 0 0 0-2.741 1.14c-.865 1.423-.372 3.537.675 4.557s2.458 1.237 3.802 1.421c1.382.189 3.129.145 3.843-1.457.519-1.167.145-2.646-.585-3.492s-1.728-1.208-2.694-1.547l.296.979zM60.487 261.48c-2.812 1.655-5.023 5.07-5.74 8.867-.217 1.145-.216 2.571.553 3.126.544.393 1.252.173 1.883-.056l8.049-2.914c-1.288.706-2.608 1.435-3.649 2.662s-1.76 3.074-1.457 4.746c.356 1.965 2.042 3.082 3.649 2.955s3.123-1.239 4.452-2.512c1.417-1.36 2.812-3.21 2.877-5.397s-2.056-4.085-3.398-2.603c3.069-1.243 6.014-3.113 8.683-5.514.966-.868 1.919-1.838 2.54-3.116s.857-2.933.328-4.177c-2.62-6.169-6.245 3.337-7.945 4.268-3.22 1.764-6.735-2.742-10.826-.335zm-12.934 27.81c-.304 1.257-.138 2.74.637 3.496s2.183.4 2.568-.826c-1.799.821-3.722 1.755-4.871 3.742s-.934 5.324.831 5.956c1.1.395 2.298-.374 3.337-1.15 2.937-2.2 5.747-4.695 8.395-7.454-.836 2.387 1.026 4.923 3.013 5.017s3.871-1.39 5.603-2.816c2.125-1.752 4.57-4.376 4.075-7.386-.43-2.621-3.068-3.631-5.126-2.728s-3.634 3.099-5.102 5.201c1.161-2.153-.377-5.152-2.336-5.37-1.904-.212-3.836 1.388-5.059 3.253 2.253-1.693 2.825-5.784-.145-6.071-1.933-.188-5.315 5.047-5.821 7.136zm61.242-12.851c-1.666-.698-3.797.826-4.29 3.068s.765 4.689 2.532 4.928c-1.307.223-2.572 1.13-3.434 2.462-.48.741-.847 1.677-.759 2.59.131 1.364 1.262 2.195 2.349 2.179s2.135-.668 3.136-1.304c-1.078.194-2.218.423-3.086 1.318s-1.27 2.703-.522 3.625c.625.773 1.681.574 2.556.21 1.962-.817 3.8-2.23 5.311-4.084 1.081 1.499 2.706 2.529 4.347 2.089s3.07-2.746 2.595-4.724c-.338-1.411-1.498-2.241-2.669-2.351s-2.354.373-3.487.906c1.17-1.112 2.412-2.35 2.864-4.094s-.416-3.992-1.828-3.768c-1.585.254-2.444 3.052-3.711 4.116-1.509-1.749 1.449-5.762-1.904-7.166zm-28.362-6.646c-1.828 1.665-2.508 4.768-2.434 7.527.082 3.048 1.113 6.247 3.289 7.339 2.863 1.436 6.534-1.856 7.138-5.856s-1.365-7.912-4.133-9.597c0 0-2.031-1.079-3.86.587zm20.261-4.535l.729.775c-1.191-1.906-3.776-2.009-5.264-.209s-1.557 5.114-.142 6.747 4.011 1.237 5.285-.809c2.067 1.109 4.829.459 6.339-1.892s1.251-6.271-.726-7.597-5.061 1.034-4.902 3.945l-.846-1.182-.474.222zm22.213 3.224c-1.463 1.882-2.985 3.891-3.555 6.392s.239 5.594 2.171 6.105c1.921.507 3.791-1.636 4.932-3.821 1.029-1.973 1.833-4.403 1.3-6.544s-2.967-3.278-4.227-1.527l-.621-.605zm-31.858-12.951c-.692-2.025-2.985-2.61-4.518-1.318s-2.139 4.029-1.517 6.097 2.292 3.393 4.057 3.532c2.186.172 4.818-2.245 4.375-4.955.916 1.529 2.602 2.055 4.161 1.766s3.02-1.28 4.393-2.358c1.866-1.461 3.866-3.671 3.721-6.353-.115-2.139-1.715-3.693-3.394-3.787s-3.358 1.002-4.669 2.481c-1.03 1.163-1.896 2.571-3.006 3.603s-2.608 1.638-3.763.908l.161.384z"/></g></g></g><g class="C D E"><path d="M456.137 448.33H176.569V330.588H456.137V448.33Z" class="G H"/><g class="B"><path d="M208.714 352.271H182.41V337.71h26.304v14.561zm240.956 70.981h-41.431V408.69h41.431v14.562zm0-52.796h-25.573v-14.562h25.573v14.562zm-240.956 34.842H182.41v-14.561h26.304v14.561zm-5.012-17.536h-21.294v-14.561h21.294v14.561z"/><use xlink:href="#AI"/><use xlink:href="#AI" x="18.585"/><use xlink:href="#AI" x="37.17"/><use xlink:href="#AI" x="55.754"/><use xlink:href="#AI" x="74.338"/><use xlink:href="#AI" x="92.923"/><path d="M308.477 370.018h-14.562v-14.563h14.562v14.563zm18.584 0H312.5v-14.563h14.561v14.563zm18.584 0h-14.562v-14.563h14.562v14.563z"/><use xlink:href="#AI" x="167.26"/><use xlink:href="#AI" x="185.845"/><path d="M401.399 370.018h-14.563v-14.563h14.563v14.563z"/><use xlink:href="#AI" x="223.013"/><use xlink:href="#AI" y="71.188"/><use xlink:href="#AI" x="18.585" y="71.188"/><use xlink:href="#AI" x="37.17" y="71.188"/><path d="M255.928 441.206h-17.765v-14.563h17.765v14.563zm92.922 0h-88.899v-14.563h88.899v14.563z"/><use xlink:href="#AI" x="196.33" y="71.188"/><path d="M411.884 441.206h-14.563v-14.563h14.563v14.563zm18.615 0h-14.562v-14.563h14.562v14.563zm-55.406 0h-22.607v-14.563h22.607v14.563z"/><use xlink:href="#AI" x="252.701" y="71.188"/><use xlink:href="#AJ"/><use xlink:href="#AJ" x="18.584"/><use xlink:href="#AJ" x="37.168"/><use xlink:href="#AJ" x="55.753"/><use xlink:href="#AJ" x="74.337"/><use xlink:href="#AJ" x="92.922"/><path d="M333.901 387.762H319.34v-14.561h14.561v14.561z"/><use xlink:href="#AJ" x="130.09"/><path d="M371.071 387.762h-14.562v-14.561h14.562v14.561z"/><use xlink:href="#AJ" x="167.258"/><path d="M408.239 387.762h-14.562v-14.561h14.562v14.561z"/><use xlink:href="#AJ" x="204.427"/></g></g><path d="M449.67 373.204v32.303h-14.558v-17.746h-4.27v-14.557h18.828z" class="B"/><g class="C D E"><path d="M449.67 373.204v32.303h-14.558v-17.746h-4.27v-14.557h18.828z"/><g class="B"><use xlink:href="#AJ" x="4.261" y="17.744"/><use xlink:href="#AJ" x="22.846" y="17.744"/><use xlink:href="#AJ" x="41.431" y="17.744"/><path d="M282.411 405.506H267.85v-14.561h14.561v14.561z"/><use xlink:href="#AJ" x="78.599" y="17.744"/><path d="M319.58 405.506h-14.562v-14.561h14.562v14.561z"/><use xlink:href="#AJ" x="115.768" y="17.744"/><use xlink:href="#AJ" x="134.353" y="17.744"/><path d="M375.333 405.506h-14.562v-14.561h14.562v14.561z"/><use xlink:href="#AJ" x="171.521" y="17.744"/><path d="M412.502 405.506H397.94v-14.561h14.562v14.561zm18.585 0h-14.563v-14.561h14.563v14.561z"/><use xlink:href="#AK"/><use xlink:href="#AK" x="18.584"/><use xlink:href="#AK" x="37.168"/><use xlink:href="#AK" x="55.752"/><use xlink:href="#AK" x="74.337"/><use xlink:href="#AK" x="92.92"/><use xlink:href="#AK" x="111.505"/><path d="M348.85 423.252h-14.562V408.69h14.562v14.562z"/><use xlink:href="#AK" x="148.674"/><use xlink:href="#AK" x="167.258"/><path d="M404.603 423.252h-14.562V408.69h14.562v14.562z"/><use xlink:href="#AJ" x="4.261" y="-34.612"/><use xlink:href="#AJ" x="22.846" y="-34.612"/><use xlink:href="#AJ" x="41.431" y="-34.612"/><path d="M282.411 353.15H267.85v-14.561h14.561v14.561z"/><use xlink:href="#AJ" x="78.599" y="-34.612"/><path d="M319.58 353.15H305.018V338.589H319.58V353.15Z"/><use xlink:href="#AJ" x="115.768" y="-34.612"/><use xlink:href="#AJ" x="134.353" y="-34.612"/><path d="M375.333 353.15h-14.562v-14.561h14.562v14.561z"/><use xlink:href="#AJ" x="171.521" y="-34.612"/><path d="M412.502 353.15H397.94v-14.561h14.562v14.561zm18.585 0h-14.563v-14.561h14.563v14.561zm18.583 0h-14.561v-14.561h14.561v14.561zm-249.621 70.102h-17.641V408.69h17.641v14.562z"/></g></g><path d="M176.568 331.341l5.841-1.948H452.34l3.846 1.923-279.618.025z" class="I"/><mask id="G" maskUnits="userSpaceOnUse" x="0" y="0" width="606" height="606"><path d="M0 0h606v606H0V0z" class="B"/></mask><g mask="url(#G)"><mask id="H" maskUnits="userSpaceOnUse" x="331" y="357" width="92" height="177"><path d="M331.795 357.561h90.437V533.28h-90.437V357.561z" class="B"/></mask><g mask="url(#H)"><g class="J"><path d="M376.12 533.28l-5.684-34.239a27.97 27.97 0 0 0-7.696-13.405c-11.308-10.908-26.252-22.107-26.895-36.408-.981-21.853-4.387-21.198-4.024-26.592.013-.193 1.697-2.605 3.891-7.999.703-1.745 1.176-4.339 1.648-6.472.485-2.242 2.618-3.769 4.897-3.454 1.527.206 3.03.897 4.108 1.927 2.073 2.012 2.994 4.981 3.079 7.878.085 2.885-.558 5.745-1.212 8.557 2.036 4.557 2.994 10.096 3.648 15.041 1.297-4 2.279-8.036 3.575-12.023.267-.146.17-.461.425-.606-1.83-3.927-.279-3.709-3.903-12.351-6.096-14.544-12.897-28.566-17.756-46.843-.388-1.418-.363-3.745.109-5.139 1.758-5.224 7.139-4.024 9.49-.982.631.8 1.091 1.697 1.455 2.642 2.484 6.509 7.781 16.544 11.599 22.362l13.198 20.119s4.594-3.77 5.297-5.454l.012-.012c.691-1.697 1.03-15.356 1.03-15.356s-1.042 2.557-3.357 2.412c-1.673-.122-5.066.848-7.478-1.867-1.976-2.218-1.976-5.551-.218-7.926l5.975-8.072s4.011-3.515 9.381-1.128c5.357 2.4 10.556 7.394 10.556 7.394s4.969-.255 9.187 1.769c4.23 2.036 8.665 7.878 8.665 7.878s4.934.303 7.152 1.915c.557.4 8.084 12.12 5.369 21.246-1.613 5.442-2.606 13.345-3.333 15.466l-3.697 53.437 7.454 35.172-15.937 8.884a114.33 114.33 0 0 1-18.34 8.201l-11.67 4.028z" fill="#000"/></g></g><path d="M421.378 470.836l.142-53.574c.585-2.166 1.051-10.117 2.297-15.654 2.1-9.285-6.187-20.478-6.77-20.841-2.321-1.453-7.263-1.427-7.263-1.427s-4.811-5.538-9.17-7.289c-4.343-1.737-9.285-1.154-9.285-1.154s-5.512-4.642-11.024-6.679c-5.512-2.023-9.285 1.752-9.285 1.752l-5.42 8.442c-1.597 2.49-1.376 5.823.738 7.898 2.595 2.554 5.914 1.361 7.587 1.361 2.322 0 3.19-2.619 3.19-2.619s.571 13.644 0 15.381l-.012.013c-.597 1.738-4.929 5.797-4.929 5.797l-14.5-19.195c-4.2-5.549-10.154-15.211-13.059-21.54-.428-.922-.946-1.791-1.635-2.542-2.541-2.88-7.988-3.722-9.401 1.607-.377 1.428-.248 3.749.232 5.137 6.07 17.909 13.787 31.45 20.83 45.56 4.188 8.378 2.631 8.274 4.719 12.062-.246.167-.128.478-.388.635-1.025 4.071-1.739 8.158-2.763 12.229-.985-4.889-2.309-10.349-4.643-14.759.467-2.853.921-5.745.636-8.624-.273-2.879-1.389-5.784-3.592-7.653-1.142-.959-2.686-1.542-4.228-1.646-2.296-.169-4.319 1.504-4.656 3.773-.325 2.154-.623 4.774-1.219 6.563-1.829 5.526-3.347 8.041-3.347 8.236 0 5.408 3.347 4.527 5.785 26.275 1.893 16.937 23.707 28.13 35.587 40.359l12.657 39.814c14.694-5.886 28.752-13.422 42.24-22.176l-10.051-35.522z" class="B"/></g><mask id="I" maskUnits="userSpaceOnUse" x="333" y="356" width="99" height="173"><path d="M333.579 360.574c-.378 1.427-.248 3.748.232 5.135 6.07 17.911 13.787 31.451 20.829 45.56 4.188 8.379 2.633 8.276 4.72 12.062-.246.168-.129.479-.387.636-1.026 4.071-1.74 8.157-2.764 12.229-.985-4.89-2.309-10.349-4.643-14.758.467-2.853.921-5.745.636-8.625-.272-2.878-1.389-5.785-3.592-7.652-1.142-.959-2.686-1.542-4.229-1.646-2.295-.17-4.318 1.504-4.656 3.773-.324 2.153-.622 4.773-1.218 6.563-1.829 5.525-3.347 8.039-3.347 8.235 0 5.408 3.347 4.527 5.785 26.275 1.893 16.937 23.707 28.131 35.587 40.36l12.658 39.814c14.694-5.888 28.751-13.423 42.238-22.177l-10.05-35.523.142-53.572c.584-2.168 1.051-10.117 2.296-15.655 2.101-9.286-6.186-20.478-6.769-20.841-2.321-1.452-7.263-1.428-7.263-1.428s-4.811-5.536-9.17-7.288c-4.343-1.738-9.285-1.155-9.285-1.155s-5.512-4.641-11.024-6.678c-5.511-2.023-9.285 1.751-9.285 1.751l-5.421 8.443c-1.595 2.491-1.376 5.823.739 7.899 2.595 2.554 5.913 1.36 7.586 1.36 2.322 0 3.192-2.619 3.192-2.619s.57 13.644 0 15.381l-.013.013c-.598 1.737-4.928 5.797-4.928 5.797l-14.501-19.194c-4.202-5.55-10.154-15.213-13.059-21.542-.429-.92-.946-1.789-1.635-2.54-1.211-1.372-3.082-2.283-4.861-2.283-1.955 0-3.801 1.098-4.54 3.89z" class="B"/></mask><g mask="url(#I)"><use xlink:href="#AL" class="G"/><use xlink:href="#AL" class="G"/><mask id="J" maskUnits="userSpaceOnUse" x="410" y="378" width="13" height="32"><path d="M410.227 378.876h12.36V409.3h-12.36v-30.424z" class="B"/></mask><g mask="url(#J)" class="B"><g class="F"><path d="M415.166 398.038c.643-1.576 1.408-3.197 2.782-4.201s3.535-1.129 4.639.166l-2.881-8.283c-.773-2.087-1.646-4.26-3.37-5.668s-4.562-1.705-6.039-.04c1.054 6.322 1.168 12.8.341 19.155-.449 3.441-1.028 7.399 1.29 9.981.638.521 1.747-.414 1.343-1.132-.192-.338-.878-.361-1.175-.331.744-3.29 1.792-6.525 3.07-9.647z"/></g></g><use xlink:href="#AM" class="G"/><use xlink:href="#AM" class="G"/><mask id="K" maskUnits="userSpaceOnUse" x="392" y="371" width="14" height="34"><path d="M392.254 371.385h12.821v33.451h-12.821v-33.451z" class="B"/></mask><g mask="url(#K)" class="B"><g class="F"><path d="M395.831 392.287c.09 2.332.076 4.693.65 6.953s1.833 4.464 3.873 5.596c-1.203-4.517-.553-9.294.105-13.921l1.199-8.435c.138-.975.292-1.993.854-2.804s1.666-1.341 2.562-.929c-1.197.711-2.753-.241-3.474-1.432s-1.008-2.628-1.862-3.726c-1.62-2.083-5.087-2.543-7.483-1.987.726 6.921 3.297 13.531 3.576 20.685z"/></g></g><path d="M376.042 373.603c-.783-.575-1.042-1.606-1.279-2.548s-.572-1.972-1.419-2.447c-3.722 2.36-1.687 9.279-5.45 11.576-.729.444-1.661.695-2.067 1.447-.366.681-.133 1.572.398 2.134s1.299.841 2.06.977c2.992.539 6.147-.99 7.934-3.451 1.474-2.03 2.494-5.309 1.767-7.715-.571.316-1.387.437-1.944.027zm-38.692 45.31c-.068.259-.116.583.091.754.319.263.744-.145.982-.483 1.561-2.22 4.653-3.225 7.22-2.344.98-.02 1.313-1.511.671-2.253s-1.733-.87-2.715-.874-2.03.05-2.86-.471c-1.023-.639-1.424-1.938-1.164-3.054l-2.225 8.725z" class="G"/><mask id="L" maskUnits="userSpaceOnUse" x="337" y="368" width="42" height="52"><path d="M337.292 368.608h40.934v51.143h-40.934v-51.143z" class="B"/></mask><g mask="url(#L)" class="B"><g class="F"><path d="M376.042 373.603c-.783-.575-1.043-1.606-1.279-2.548s-.572-1.972-1.419-2.447c-3.722 2.36-1.687 9.279-5.45 11.576-.729.444-1.661.695-2.067 1.447-.366.681-.133 1.572.398 2.134s1.299.841 2.06.977c2.992.539 6.147-.99 7.934-3.451 1.474-2.03 2.494-5.309 1.767-7.715-.571.316-1.387.437-1.944.027zm-38.692 45.31c-.068.259-.116.583.091.754.319.263.744-.144.982-.483 1.561-2.22 4.653-3.225 7.22-2.344.98-.02 1.313-1.511.671-2.253s-1.733-.87-2.715-.874-2.03.05-2.86-.471c-1.023-.639-1.424-1.938-1.164-3.054l-2.225 8.725z"/></g></g><path d="M386.695 372.679c-2.121-.283-4.363-.334-6.207-1.417-2.313-1.355-3.897-4.25-6.576-4.365-2.379-.103-4.149 2.077-5.502 4.038-.155-2.959 2.02-5.723 4.772-6.823s5.913-.752 8.667.341 5.17 2.879 7.52 4.681c.945.725 1.904 1.476 2.543 2.481 2.99 4.708-3.345 1.315-5.217 1.064z" class="G"/><mask id="M" maskUnits="userSpaceOnUse" x="368" y="363" width="25" height="12"><path d="M368.403 363.439h24.298v10.657h-24.298v-10.657z" class="B"/></mask><g mask="url(#M)" class="B"><g class="F"><path d="M386.695 372.679c-2.121-.283-4.363-.334-6.208-1.417-2.312-1.355-3.896-4.25-6.575-4.365-2.379-.103-4.149 2.077-5.502 4.038-.155-2.959 2.02-5.723 4.772-6.823s5.913-.752 8.667.341 5.17 2.879 7.52 4.681c.945.725 1.904 1.476 2.543 2.481 2.99 4.708-3.345 1.315-5.217 1.064z"/></g></g><path d="M348.785 441.514l.397-.814c-.254.194-.423.465-.397.814z" class="G"/><path d="M352.384 422.738c-.237-2.987.188-5.991.063-8.986s-.906-6.146-3.088-8.202c-3.127-2.947-11.692-1.44-8.818 4.154.795 1.551 2.848 2.358 4.445 1.658s2.382-2.871 1.509-4.379c3.462 5.253 3.153 12.708-.734 17.654 4.44 3.849 5.851 10.739 3.421 16.063.519-.397 1.424-.451 1.994-.021.847.642 1.133 1.76 1.545 2.74s1.216 1.999 2.276 1.927c1.457-3.568.974-7.63.028-11.366s-2.334-7.399-2.641-11.242zm31.358-56.204c-1.667-1.279-3.647-2.146-5.731-2.417l5.731 2.417z" class="G"/><use xlink:href="#AN" class="G"/><use xlink:href="#AO" class="G"/><path d="M377.268 372.205l.072.604c.037-.197.029-.403-.072-.604zm-6.332 24.529c-4.251-8.349-8.504-16.701-13.176-24.821-2.731-4.747-5.625-9.441-9.268-13.532-1.613-1.812-6.253-6.008-8.806-3.243-1.704 1.842.536 5.196-1.56 7.189.48.029 2.848-.23 3.099.08a36.89 36.89 0 0 1 8.136 23.506c1.711-1.342 4.053.521 5.389 2.237a396.19 396.19 0 0 1 22.988 32.848c-1.375-5.007-1.41-10.318-2.895-15.294-.935-3.13-2.425-6.06-3.907-8.97zm49.37 20.348c2.031-5.435 3.616-11.004 3.797-16.774.164-5.242-1.036-10.688-3.806-15.179-.7-1.136-3.611-5.78-5.205-5.403-2.845.672.891 5.619 1.542 6.855 2.457 4.665 4.982 9.599 4.824 14.869-.121 4.06-1.83 7.876-3.196 11.703-.951 2.666-1.725 5.519-1.707 8.314-.21.31-.401.634-.628.933-1.89 2.476-4.54 4.517-7.615 5.018l3.513-10.848c.42-1.289.57-3.054-.18-3.953.242-.496.391-1.017.37-1.579-.039-.998-.609-1.88-1.027-2.784-1.623-3.493-1.073-7.552-.679-11.383.486-4.726.672-9.593-.716-14.137s-4.593-8.757-9.098-10.266l1.156 1.249-1.526-1.112 2.84 5.909-1.046 1.495c1.562-.819 3.567.369 4.283 1.982s.52 3.463.355 5.22a104.46 104.46 0 0 0 1.43 29.398c-.178 2.258-.568 4.543-1.745 6.467-1.269 2.078-3.652 3.639-6.06 3.286.532-2.328-.366-5.083-2.338-6.461-2.444 3.394-1.004 8.666-.633 12.528.565 5.856 1.506 11.674 2.816 17.407.375-4.971 1.419-9.893 3.091-14.59l3.956 14.359c.042-1.34.097-2.738.747-3.911s2.092-2.024 3.345-1.552c1.028.388 1.583 1.479 2.005 2.493 3.426 8.227 4.289 17.502 2.438 26.221 1.628.903 3.781-.191 4.684-1.817s.894-3.588.86-5.449l-.847-48.508z" class="G"/><use xlink:href="#AP" class="G"/><use xlink:href="#AQ" class="G"/><mask id="N" maskUnits="userSpaceOnUse" x="338" y="354" width="87" height="120"><path d="M338.125 354.22h85.993v118.961h-85.993V354.22z" class="B"/></mask><g mask="url(#N)" class="B"><g class="F"><path d="M348.785 441.514l.397-.814c-.254.194-.423.465-.397.814z"/><path d="M352.384 422.738c-.237-2.987.188-5.991.063-8.986s-.906-6.146-3.088-8.202c-3.127-2.947-11.692-1.44-8.818 4.154.795 1.551 2.848 2.358 4.445 1.658s2.382-2.871 1.509-4.379c3.462 5.253 3.153 12.708-.734 17.654 4.44 3.849 5.851 10.739 3.421 16.063.519-.397 1.424-.451 1.994-.021.847.642 1.133 1.76 1.545 2.74s1.216 1.999 2.276 1.927c1.457-3.568.974-7.63.028-11.367s-2.334-7.398-2.641-11.241zm31.358-56.204c-1.667-1.279-3.647-2.146-5.731-2.417l5.731 2.417z"/><use xlink:href="#AN"/><use xlink:href="#AO"/><path d="M377.268 372.205l.072.604c.037-.197.029-.403-.072-.604zm-6.332 24.529c-4.251-8.349-8.504-16.701-13.176-24.821-2.73-4.747-5.625-9.441-9.268-13.532-1.613-1.812-6.253-6.008-8.806-3.243-1.704 1.842.537 5.196-1.56 7.189.48.029 2.848-.23 3.099.08a36.89 36.89 0 0 1 8.136 23.506c1.711-1.342 4.053.521 5.389 2.237a396.19 396.19 0 0 1 22.988 32.848c-1.375-5.007-1.41-10.318-2.895-15.294-.935-3.13-2.425-6.06-3.907-8.97zm49.37 20.348c2.031-5.435 3.617-11.004 3.797-16.774.164-5.242-1.036-10.688-3.806-15.179-.7-1.136-3.611-5.78-5.205-5.403-2.845.672.891 5.619 1.542 6.855 2.457 4.665 4.982 9.599 4.825 14.869-.122 4.06-1.831 7.876-3.197 11.703-.951 2.666-1.725 5.519-1.707 8.314-.21.31-.401.634-.628.933-1.89 2.476-4.54 4.517-7.615 5.018l3.514-10.848c.419-1.289.569-3.054-.181-3.953.242-.496.391-1.017.37-1.579-.039-.998-.609-1.88-1.027-2.784-1.623-3.493-1.073-7.552-.679-11.383.486-4.726.672-9.593-.716-14.137s-4.593-8.757-9.098-10.266l1.156 1.249-1.526-1.112 2.84 5.909-1.046 1.495c1.562-.819 3.567.369 4.283 1.982s.52 3.463.355 5.22a104.46 104.46 0 0 0 1.43 29.398c-.178 2.258-.568 4.543-1.745 6.467-1.269 2.078-3.652 3.639-6.06 3.286.532-2.328-.366-5.083-2.338-6.461-2.443 3.394-1.004 8.666-.633 12.528.565 5.856 1.506 11.674 2.816 17.407a56.14 56.14 0 0 1 3.092-14.59l3.956 14.359c.041-1.34.096-2.738.746-3.911s2.092-2.024 3.345-1.552c1.028.388 1.583 1.479 2.005 2.493 3.426 8.227 4.289 17.502 2.438 26.221 1.628.903 3.781-.191 4.684-1.817s.894-3.588.86-5.449l-.847-48.508z"/><use xlink:href="#AP"/><use xlink:href="#AQ"/></g></g></g><mask id="O" maskUnits="userSpaceOnUse" x="0" y="0" width="606" height="606"><path d="M0 0h606v606H0V0z" class="B"/></mask><g mask="url(#O)"><path d="M338.838 418.245a15.58 15.58 0 0 0-3.555 3.998l3.555-3.998z" class="B"/><path d="M389.189 528.535l-12.657-39.815c-11.88-12.228-33.693-23.422-35.588-40.359-2.437-21.749-5.783-20.867-5.783-26.275 0-.195 1.517-2.71 3.346-8.235.596-1.79.895-4.411 1.218-6.563.338-2.269 2.361-3.943 4.657-3.773 1.543.104 3.085.687 4.228 1.646 2.204 1.867 3.32 4.774 3.591 7.652.287 2.88-.168 5.771-.635 8.625 2.335 4.408 3.658 9.868 4.644 14.757 1.024-4.071 1.738-8.157 2.761-12.228.26-.156.144-.468.39-.636-2.088-3.787-.532-3.683-4.721-12.062-7.042-14.11-14.76-27.649-20.828-45.56-.48-1.387-.61-3.708-.234-5.135 1.414-5.329 6.86-4.487 9.403-1.607.687.751 1.206 1.62 1.635 2.54 2.904 6.329 8.857 15.992 13.059 21.542l14.499 19.194s4.332-4.06 4.928-5.797l.013-.013c.571-1.738 0-15.381 0-15.381s-.869 2.62-3.191 2.62c-1.672 0-4.992 1.193-7.586-1.361-2.115-2.075-2.334-5.408-.739-7.899l5.421-8.443s3.773-3.774 9.285-1.751c5.513 2.036 11.025 6.679 11.025 6.679s4.941-.584 9.285 1.156c4.357 1.75 9.169 7.286 9.169 7.286s4.941-.024 7.262 1.428c.584.363 8.872 11.555 6.77 20.84-1.245 5.539-1.711 13.488-2.295 15.654l-.142 53.576 10.051 35.521m-38.784-133.557c2.141 7.902 3.256 16.081 3.308 24.266.007 1.369-.007 2.772.432 4.068s1.437 2.498 2.779 2.771m10.624-23.143c3.599 7.591-.084 24.537.186 25.731s.953 2.355 2.044 2.911" class="C D E"/><path d="M378.54 371.763l-1.199 7.621c-2.817-2.396-4.612-5.959-4.859-9.65m-17.161 66.697l-2.616 1.153m3.286.947c-.427 2.013-.435 4.115-.027 6.131m15.342-28.783l2.903 5.225m2.669-24.338l2.884-4.075m37.689 23.188l-.871 3.194m-6.184-11.927l2.551-8.146m5.978-6.298c1.497-.868 3.671-.191 4.411 1.373m-21.83-15.286a6.28 6.28 0 0 1 5.839 1.337m-59.822 6.746a8.89 8.89 0 0 1 7.522-2.833m-18.456-20.028c1.733-1.268 3.989-1.795 6.104-1.429m-3.855 55.663a15.58 15.58 0 0 0-3.555 3.998m4.72-9.5c1.916-1.37 4.969 1.693 6.731.13.701-.622.754-1.701.592-2.626s-.488-1.848-.351-2.776m47.071-3.133a21.93 21.93 0 0 1 1.33 15.534m12.747-8.059a10.05 10.05 0 0 1-1.215 6.662" class="C D E"/><mask id="P" maskUnits="userSpaceOnUse" x="204" y="362" width="88" height="170"><path d="M204.15 362.731h87.318v168.84H204.15v-168.84z" class="B"/></mask><g mask="url(#P)"><g class="J"><path d="M290.94 430.005a7.34 7.34 0 0 1-.109 2.521c-.788 3.649-3.066 14.278-3.902 20.095-.994 7.103-12.472 29.088-12.472 29.088l-15.95 19.974c-2.642 3.357-6.823 16.944-10.375 29.888-4.484-1.357-8.92-2.824-13.332-4.387a348.34 348.34 0 0 1-10.895-4.085c-5.067-2-11.527-5.175-18.944-9.235 2.012-7.309 3.357-12.932 3.333-13.26-.061-.763 4.315-9.187 4.315-9.187l-3.818-50.226-2.254-7.647c-1.176-3.951-1.915-8.023-2.218-12.095a58.57 58.57 0 0 1 1.563-18.58l6.581-9.769 3.079-.23 9.526-13.308s5.151-1.551 6.472 2.327c1.321 3.891-4.29 11.125-4.29 11.125l-1.927 11.964 4.581 11.199 2.375.872s.8-19.719.255-23.658l5.066-17.998s3.018-6.013 3.951-9.043c.921-3.017 6.339-6.01 9.454-.714 0 0 1.733 2.691.485 6.387l-2.327 6.606s-1.152 15.247-1.515 15.671c-.364.4 2.242 22.701 2.242 22.701l1.988.884.702-21.27 4.133-19.986s-.339-9.611 6.436-8.448c0 0 3.176-.363 4.981 3.103 1.806 3.454.085 26.458.085 26.458l1.673 23.779 2.678 18.338 3.152-12.568s.181-18.011 11.55-19.55c0 0 3.381-.606 4.072 1.745.691 2.339-1.684 7.151-1.345 11.757.254 3.236.715 6.884.945 8.762z" fill="#000"/></g></g><path d="M287.487 407.742c-.519-2.398-3.93-2.048-3.93-2.048-11.452.672-12.995 18.622-12.995 18.622l-4.099 12.295-1.283-18.493.129-23.838s3.463-22.813 1.92-26.392c-1.531-3.592-4.734-3.462-4.734-3.462-6.666-1.673-7.055 7.937-7.055 7.937l-5.628 19.609-2.309 21.151-1.919-1.023s-.908-22.436-.519-22.813c.389-.389 2.698-15.51 2.698-15.51l2.813-6.408c1.531-3.591 0-6.406 0-6.406-2.696-5.513-8.325-2.943-9.48 0s-4.616 8.715-4.616 8.715l-6.42 17.559c.246 3.969-2.037 23.579-2.037 23.579l-2.307-1.051-3.723-11.516 2.827-11.79s6.147-6.782 5.123-10.762c-1.025-3.969-6.277-2.816-6.277-2.816l-10.505 12.554h-3.086l-7.302 9.234a58.69 58.69 0 0 0-2.97 18.416c0 4.085.428 8.196 1.297 12.23l1.673 7.794v50.371s-4.993 8.067-4.993 8.832c0 .35-2.062 6.718-4.941 14.655 12.566 7.394 23.395 13.113 31.061 16.134a326.62 326.62 0 0 0 10.907 4.086c4.603-12.931 9.986-26.768 12.956-29.998l17.417-18.715s13.111-21.048 14.642-28.051c1.271-5.745 4.345-16.172 5.408-19.752a7.1 7.1 0 0 0 .298-2.502c-.091-1.894-.273-5.564-.273-8.806 0-4.618 2.737-9.234 2.232-11.621z" class="B"/></g><mask id="Q" maskUnits="userSpaceOnUse" x="192" y="357" width="96" height="171"><path d="M241.096 360.963c-1.154 2.944-4.617 8.715-4.617 8.715l-6.42 17.56c.246 3.968-2.036 23.578-2.036 23.578l-2.307-1.051-3.722-11.516 2.826-11.789s6.148-6.784 5.123-10.764c-1.024-3.968-6.277-2.814-6.277-2.814l-10.506 12.553h-3.085l-7.301 9.235a58.65 58.65 0 0 0-2.971 18.415c0 4.085.429 8.196 1.297 12.23l1.674 7.794v50.371s-4.994 8.068-4.994 8.832c0 .35-2.063 6.719-4.941 14.655 12.566 7.394 23.395 13.113 31.061 16.135 3.604 1.425 7.249 2.787 10.907 4.084 4.603-12.93 9.985-26.768 12.956-29.998l17.417-18.713s13.111-21.049 14.642-28.052c1.271-5.746 4.345-16.172 5.408-19.752a7.1 7.1 0 0 0 .299-2.502c-.092-1.894-.274-5.564-.274-8.806 0-4.618 2.737-9.234 2.231-11.621-.518-2.4-3.929-2.049-3.929-2.049-11.452.674-12.995 18.623-12.995 18.623l-4.098 12.295-1.284-18.494.129-23.836s3.463-22.814 1.92-26.393c-1.531-3.592-4.734-3.461-4.734-3.461-6.666-1.674-7.055 7.936-7.055 7.936l-5.629 19.609-2.309 21.152-1.918-1.023s-.908-22.437-.519-22.814c.389-.389 2.698-15.511 2.698-15.511l2.813-6.405c1.531-3.593 0-6.408 0-6.408-1.155-2.362-2.851-3.241-4.501-3.241-2.199 0-4.32 1.56-4.979 3.241z" class="B"/></mask><g mask="url(#Q)"><use xlink:href="#AR" class="G"/><use xlink:href="#AS" class="G"/><use xlink:href="#AT" class="G"/><use xlink:href="#AU" class="G"/><path d="M204.718 429.907a12.04 12.04 0 0 0-1.412 5.703c.012-.91.87-1.647 1.772-1.777s1.808.221 2.59.69c.181-.918.361-1.864.168-2.778s-.854-1.798-1.776-1.947-1.943.741-1.69 1.641l-.286-.699.634-.833z" class="G"/><mask id="R" maskUnits="userSpaceOnUse" x="197" y="352" width="91" height="100"><path d="M197.58 352.965h90.255v98.298H197.58v-98.298z" class="B"/></mask><g mask="url(#R)" class="B"><g class="F"><use xlink:href="#AR"/></g></g><mask id="S" maskUnits="userSpaceOnUse" x="203" y="418" width="53" height="18"><path d="M203.307 418.717h51.985v16.893h-51.985v-16.893z" class="B"/></mask><g mask="url(#S)" class="B"><g class="F"><use xlink:href="#AS"/><use xlink:href="#AT"/><use xlink:href="#AU"/><path d="M204.718 429.907a12.04 12.04 0 0 0-1.412 5.703c.012-.91.87-1.647 1.772-1.777s1.808.221 2.59.69c.18-.918.361-1.864.168-2.778s-.854-1.798-1.777-1.947-1.942.741-1.689 1.641l-.286-.699.634-.833z"/></g></g></g><mask id="T" maskUnits="userSpaceOnUse" x="0" y="0" width="606" height="606"><path d="M0 0h606v606H0V0z" class="B"/></mask><g mask="url(#T)"><path d="M192.839 506.967c2.878-7.937 4.941-14.305 4.941-14.655 0-.765 4.994-8.831 4.994-8.831v-50.372l-1.674-7.794c-.868-4.034-1.297-8.145-1.297-12.23a58.65 58.65 0 0 1 2.971-18.415l7.301-9.235h3.087l10.504-12.554s5.253-1.153 6.277 2.815c1.024 3.981-5.122 10.764-5.122 10.764l-2.828 11.789 3.722 11.516 2.308 1.051s2.284-19.61 2.036-23.578l6.42-17.56s3.463-5.771 4.617-8.715 6.783-5.513 9.481 0c0 0 1.53 2.814 0 6.406l-2.815 6.407s-2.308 15.122-2.697 15.511c-.389.377.519 22.814.519 22.814l1.92 1.023 2.307-21.152 5.629-19.609s.389-9.61 7.055-7.936c0 0 3.203-.131 4.734 3.461 1.543 3.58-1.92 26.391-1.92 26.391l-.128 23.838 1.283 18.494 4.098-12.295s1.543-17.949 12.995-18.623c0 0 3.411-.351 3.929 2.049.506 2.387-2.231 7.003-2.231 11.621 0 3.242.182 6.912.274 8.805a7.1 7.1 0 0 1-.299 2.503c-1.063 3.58-4.137 14.006-5.408 19.752-1.531 7.003-14.641 28.052-14.641 28.052l-17.419 18.714c-2.97 3.23-8.352 17.067-12.955 29.998" class="C D E"/><path d="M227.813 412.713c.671 2.389-.008 5.109-1.722 6.903z" class="B"/><path d="M227.813 412.713c.671 2.389-.008 5.109-1.722 6.903" class="C D E"/><use xlink:href="#AV" class="B"/><use xlink:href="#AV" class="C D E"/><path d="M256.591 373.445c1.97-.519 4.077-.513 6.044.017l.069-1.687m-22.027-5.901a3.96 3.96 0 0 0 4.06.277c1.264-.669 2.093-2.083 2.058-3.512m37.686 45.308c-3.363.767-5.882 4.242-5.563 7.677l2.972.886" class="C D E"/><path d="M245.475 409.428c.134 2.032-.114 6.893.022 8.926z" class="B"/><path d="M245.475 409.428c.134 2.032-.114 6.893.022 8.926" class="C D E"/><path d="M247.708 412.244l-.734 9.993.058-1.271" class="B"/><path d="M247.708 412.244l-.734 9.993.058-1.271" class="C D E"/><path d="M266.199 440.332c.888 3.646.481 7.594-1.133 10.981z" class="B"/><path d="M266.199 440.332c.888 3.646.481 7.594-1.133 10.981m-29.589-28.445c-2.641 2.898-2.255 9.847-.388 13.671m19.915-8.889c.066 3.127-1.076 6.265-3.234 8.889m-35.538-12.285c-.438 2.909.218 5.972 1.808 8.447m-13.051.601a10.27 10.27 0 0 0 1.866 6.473m13.544-62.351c1.372-.663 3.144-.378 4.241.682l1.498-1.978m6.697 10.193c2.004-1.275 4.938-.776 6.408 1.088m13.016 4.975c2.163-.98 4.768-.925 6.888.144m-50.107 10.024c1.255-2.167 3.867-3.463 6.352-3.151m-14.479 14.746c.031-1.568 1.319-3.013 2.873-3.227" class="C D E"/></g><mask id="U" maskUnits="userSpaceOnUse" x="0" y="0" width="606" height="606"><path d="M0 0h606v606H0V0z" class="B"/></mask><g mask="url(#U)"><path d="M563.437 276.812c0 27.743-22.49 50.234-50.233 50.234s-50.235-22.491-50.235-50.234 22.491-50.233 50.235-50.233 50.233 22.49 50.233 50.233z" class="C D E H"/><mask id="V" maskUnits="userSpaceOnUse" x="490" y="232" width="89" height="81"><path d="M490.719 232.39h87.393v80.082h-87.393V232.39z" class="B"/></mask><g mask="url(#V)"><g class="J"><path d="M570.077 278.127c-10.711 17.568-14.52 15.195-51.056 32.697-18.547 8.884-36.471-19.679-24.345-48.996.591-1.43 5.832-8.666 5.832-8.666 2.206-9.696 10.254-17.815 19.937-20.095 9.671-2.289 20.507 1.357 26.822 9.042 6.86-6.073 16.81-8.326 25.669-6.132l1.212 3.636.437 1.37c.461 1.416.897 2.834 1.297 4.266a209.15 209.15 0 0 1 2.23 8.192c-4.036-1.126-8.097-1.15-11.926.716-2.678 1.308-4.922 3.466-7.708 4.532-2.788 1.055-6.643.46-7.71-2.327 1.347 5.6 7.222 3.925 12.867 5.034 8.739 1.715 10.95 9.336 6.442 16.731z" fill="#000"/></g></g><use xlink:href="#AW" class="B"/><use xlink:href="#AW" class="C D E H"/><use xlink:href="#AX" class="B"/><use xlink:href="#AX" class="C D E H"/><path d="M476.744 270.779c0 19.938 17.077 36.101 38.143 36.101s38.141-16.163 38.141-36.101-17.076-36.102-38.141-36.102-38.143 16.163-38.143 36.102z" class="B"/><path d="M483.496 272.669c0 16.368 14.018 29.637 31.312 29.637s31.312-13.269 31.312-29.637-14.018-29.637-31.312-29.637-31.312 13.269-31.312 29.637z" class="I"/><path d="M553.028 270.779c0-19.939-17.077-36.102-38.141-36.102s-38.142 16.163-38.142 36.102m66.219 24.434c6.248-6.43 10.065-15.01 10.065-24.435m-64.86 25.764c6.881 6.394 16.313 10.338 26.718 10.338 6.389 0 12.412-1.488 17.703-4.116m-49.924-12.658l1.583 2.177m-7.505-21.504c0 5.508 1.304 10.731 3.636 15.402" class="C D E H K"/><path d="M570.86 280.658s-6.8-4.752-17.832-.444z" class="B"/><path d="M570.86 280.658s-6.8-4.752-17.832-.444" class="C D E H K"/><path d="M565.006 283.964c-2.601.771-6.965 1.663-14.105 2.215z" class="B"/><path d="M565.006 283.964c-2.601.771-6.965 1.663-14.105 2.215" class="C D E H K"/><path d="M568.542 282.462s-.411.362-1.701.876z" class="B"/><path d="M568.542 282.462s-.411.362-1.701.876" class="C D E H K"/><path d="M574.585 240.982l-.436-1.369c-2.316-7.176-5.297-15.054-8.921-23.368l-2.072-4.678-.812.073c-3.479.351-7.139.787-9.999 2.763-2.873 2.012-4.569 6.145-2.715 9.114 1.818 2.945 6.581 4.582 5.83 7.939-7.769 4.375-17.247 3.866-25.889 6.072-5.199 1.321-10.12 3.66-14.434 6.811-.014 0-.014.012-.025.012-1.369 1.031-2.69 2.121-3.928 3.297-.544.521-1.114 1.091-1.598 1.721-.013.012-.013.012-.013.024-.715.909-1.26 1.927-1.37 3.079-.303 3.236 2.643 5.442 5.782 6.848.581.266.546 1.103-.048 1.309-2.049.824-4.048 1.781-5.66 3.272-.013 0-.025.012-.037.024-.995.897-.182 2.582 1.175 2.4.146-.024.328-.036.486-.048 1.332-.097 2.581.06 3.66.436 1.854.654 3.151 1.915 3.284 3.466.194 2.461-2.605 4.678-6.241 4.957-.886.085-.206 1.14 1.09 1.358 2.582.46 5.212-.037 7.757-.631 3.042-.727 6.291-1.781 8.012-4.387.727-1.103.945-2.545.727-3.854-.303-1.794-1.43-3.357-3.224-3.539a106.09 106.09 0 0 0 16.628-3.333h.013l1.709-.521c1.624-.485 3.333-1.079 4.69-2.049.848-.606 1.551-1.321 2.048-2.254 1.261-2.436-.521-6.29-3.212-5.781 7.818-3.067 16.084-4.86 23.986-7.684 1.259-.461 2.52-.946 3.757-1.479z" class="B"/></g><mask id="W" maskUnits="userSpaceOnUse" x="0" y="0" width="606" height="606"><path d="M0 0h606v606H0V0z" class="B"/></mask><g mask="url(#W)"><mask id="X" maskUnits="userSpaceOnUse" x="144" y="63" width="371" height="146"><path d="M144.725 63.031h369.939v145.594H144.725V63.031z" class="B"/></mask><g mask="url(#X)"><g class="J"><path d="M514.663 136.144c-7.32 6.509-15.682 12.035-24.117 17.017-44.13 26.106-93.979 41.741-144.689 49.364-50.699 7.624-102.342 7.394-153.44 3.188-10.036-.824-20.241-1.842-29.463-5.89-7.818-3.442-14.909-9.43-18.228-17.174 11.064-12.605 21.354-25.355 32.807-37.391 2.727-2.872 5.515-5.696 8.387-8.472 2.424-2.314 4.886-4.593 7.442-6.823 2.922-2.57 5.928-5.078 9.078-7.502a172.52 172.52 0 0 1 13.683-9.624l3.552-2.23c120.848-75.107 209.797-50.589 269.136 0a226.25 226.25 0 0 1 12.92 11.854c2.521 2.436 4.957 4.957 7.321 7.502.268.267.509.545.763.836 1.661 1.77 3.273 3.551 4.848 5.345z" fill="#000"/></g></g><use xlink:href="#AY" class="B"/><use xlink:href="#AY" class="C D E H"/><use xlink:href="#AZ" fill="#767676"/><use xlink:href="#AZ" class="C D E H"/><use xlink:href="#Aa" fill="#9a9a9a"/><use xlink:href="#Aa" class="C D E H"/><use xlink:href="#Ab" fill="silver"/><use xlink:href="#Ab" class="C D E H"/><path d="M468.379 241.097H163.598L121.66 129.004h388.459l-41.74 112.093zm-189.397 14.828h67.946v-4.651h-67.946v4.651z" class="I"/><path d="M423.857 236.284H208.636c-1.183 0-2.31-.537-2.52-1.203l-30.613-97.26c-.344-1.091.611-1.979 2.135-1.979h277.216c1.523 0 2.478.888 2.135 1.979l-30.614 97.26c-.208.666-1.335 1.203-2.518 1.203z" class="G"/><path d="M423.064 234.08H209.428l-26.014-85.459h265.664l-26.014 85.459z" class="I"/><path d="M240.092 169.837h-40.444c-.998 0-1.655.539-1.466 1.201s1.146 1.195 2.139 1.195h40.211c.993 0 1.702-.535 1.583-1.195s-1.024-1.201-2.023-1.201zm1.355 7.384H207.05c-.98 0-1.635.52-1.46 1.16s1.104 1.151 2.079 1.151h34.202c.974 0 1.674-.515 1.56-1.151s-1.004-1.16-1.984-1.16z" class="B"/><mask id="Y" maskUnits="userSpaceOnUse" x="202" y="184" width="43" height="3"><path d="M202.268 184.348h42.443v2.231h-42.443v-2.231z" class="B"/></mask><g mask="url(#Y)" class="B"><g class="F"><path d="M242.754 184.347h-39.03c-.965 0-1.602.502-1.427 1.119s1.095 1.112 2.053 1.112h38.812c.959 0 1.647-.497 1.537-1.112s-.982-1.119-1.945-1.119z"/></g></g><path d="M244.016 191.228h-22.925c-.948 0-1.596.485-1.449 1.081s1.027 1.075 1.97 1.075h22.799c.942 0 1.621-.481 1.514-1.075s-.962-1.081-1.909-1.081zm1.219 6.649h-37.711c-.932 0-1.553.468-1.389 1.044s1.047 1.039 1.974 1.039h37.508c.927 0 1.595-.464 1.492-1.039s-.942-1.044-1.874-1.044zm1.18 6.427h-30.454c-.915 0-1.537.454-1.387 1.01s1.007 1.006 1.918 1.006h30.292c.912 0 1.57-.45 1.469-1.006s-.923-1.01-1.838-1.01zm1.14 6.218h-29.956c-.9 0-1.513.438-1.369.978s.986.972 1.883.972h29.8c.897 0 1.545-.435 1.448-.972s-.905-.978-1.806-.978zm1.104 6.018h-32.684c-.887 0-1.488.425-1.344.947s.976.942 1.858.942h32.517c.881 0 1.521-.422 1.428-.942s-.889-.947-1.775-.947z" class="B"/><mask id="Z" maskUnits="userSpaceOnUse" x="227" y="222" width="25" height="3"><path d="M227.246 222.368h24.234v1.829h-24.234v-1.829z" class="B"/></mask><g mask="url(#Z)" class="B"><g class="F"><path d="M249.728 222.368h-21.112c-.872 0-1.478.411-1.353.916s.927.913 1.796.913h21.005c.868 0 1.498-.409 1.407-.913s-.87-.916-1.743-.916z"/></g></g><mask id="a" maskUnits="userSpaceOnUse" x="206" y="162" width="35" height="3"><path d="M207 162.181h33.766v2.485H207v-2.485z" class="B"/></mask><g mask="url(#a)" class="B"><g class="F"><path d="M238.688 162.181h-30.142c-1.017 0-1.696.558-1.518 1.246s1.14 1.238 2.152 1.238h29.963c1.011 0 1.732-.554 1.61-1.238s-1.049-1.246-2.065-1.246z"/></g></g><path d="M237.23 154.237h-41.964c-1.036 0-1.71.581-1.507 1.293s1.203 1.285 2.232 1.285h41.713c1.029 0 1.761-.574 1.634-1.285s-1.072-1.293-2.108-1.293zm13.534 73.776h-34.776c-.858 0-1.441.399-1.302.889s.946.885 1.8.885h34.604c.853 0 1.475-.395 1.389-.885s-.857-.889-1.715-.889z" class="B"/><mask id="b" maskUnits="userSpaceOnUse" x="253" y="169" width="10" height="4"><path d="M253.849 169.536h8.294v2.995h-8.294v-2.995z" class="B"/></mask><g mask="url(#b)" class="B"><g class="F"><path d="M254.298 172.53h7.845l-.392-2.995h-7.903l.45 2.995z"/></g></g><mask id="c" maskUnits="userSpaceOnUse" x="254" y="176" width="10" height="4"><path d="M254.959 176.93h8.141v2.89h-8.141v-2.89z" class="B"/></mask><g mask="url(#c)" class="B"><g class="F"><path d="M255.393 179.819h7.707l-.379-2.889h-7.762l.434 2.889z"/></g></g><mask id="d" maskUnits="userSpaceOnUse" x="256" y="184" width="9" height="3"><path d="M256.03 184.066h7.992v2.79h-7.992v-2.79z" class="B"/></mask><g mask="url(#d)" class="B"><g class="F"><path d="M256.45 186.856h7.573l-.367-2.789h-7.625l.419 2.789z"/></g></g><mask id="e" maskUnits="userSpaceOnUse" x="257" y="190" width="8" height="4"><path d="M257.065 190.957h7.849v2.695h-7.849v-2.695z" class="B"/></mask><g mask="url(#e)" class="B"><g class="F"><path d="M257.47 193.651h7.444l-.354-2.694h-7.495l.405 2.694z"/></g></g><mask id="f" maskUnits="userSpaceOnUse" x="258" y="197" width="8" height="4"><path d="M258.065 197.614h7.711v2.605h-7.711v-2.605z" class="B"/></mask><g mask="url(#f)" class="B"><g class="F"><path d="M258.457 200.219h7.319l-.342-2.604h-7.369l.392 2.604z"/></g></g><mask id="g" maskUnits="userSpaceOnUse" x="259" y="204" width="8" height="3"><path d="M259.032 204.051h7.576v2.519h-7.576v-2.519z" class="B"/></mask><g mask="url(#g)" class="B"><g class="F"><path d="M259.411 206.57h7.198l-.33-2.519h-7.247l.379 2.519z"/></g></g><mask id="h" maskUnits="userSpaceOnUse" x="259" y="210" width="9" height="3"><path d="M259.968 210.277h7.446v2.437h-7.446v-2.437z" class="B"/></mask><g mask="url(#h)" class="B"><g class="F"><path d="M260.334 212.715h7.08l-.318-2.439h-7.128l.366 2.439z"/></g></g><mask id="i" maskUnits="userSpaceOnUse" x="260" y="216" width="9" height="3"><path d="M260.872 216.302h7.323v2.361h-7.323v-2.361z" class="B"/></mask><g mask="url(#i)" class="B"><g class="F"><path d="M261.227 218.663h6.968l-.309-2.361h-7.013l.354 2.361z"/></g></g><mask id="j" maskUnits="userSpaceOnUse" x="261" y="222" width="8" height="3"><path d="M261.748 222.138h7.202v2.286h-7.202v-2.286z" class="B"/></mask><g mask="url(#j)" class="B"><g class="F"><path d="M262.092 224.424h6.859l-.3-2.287h-6.902l.343 2.287z"/></g></g><mask id="k" maskUnits="userSpaceOnUse" x="252" y="161" width="10" height="4"><path d="M252.696 161.869h8.456v3.105h-8.456v-3.105z" class="B"/></mask><g mask="url(#k)" class="B"><g class="F"><path d="M253.163 164.974h7.99l-.408-3.106h-8.049l.467 3.106z"/></g></g><mask id="l" maskUnits="userSpaceOnUse" x="251" y="153" width="10" height="5"><path d="M251.502 153.913h8.622v3.223h-8.622v-3.223z" class="B"/></mask><g mask="url(#l)" class="B"><g class="F"><path d="M251.986 157.136h8.138l-.423-3.223h-8.199l.484 3.223z"/></g></g><mask id="m" maskUnits="userSpaceOnUse" x="262" y="227" width="8" height="4"><path d="M262.598 227.791h7.085v2.216h-7.085v-2.216z" class="B"/></mask><g mask="url(#m)" class="B"><g class="F"><path d="M262.931 230.007h6.752l-.29-2.216h-6.794l.332 2.216z"/></g></g><path d="M304.268 217.487c-.019-.523.687-.947 1.574-.947h116.131c.886 0 1.481.424 1.33.947s-.99.941-1.871.941H305.895c-.882 0-1.61-.42-1.627-.941zm118.873-5.015h-64.303c-.896 0-1.574-.435-1.515-.972s.839-.978 1.739-.978h64.639c.9 0 1.503.438 1.345.978s-1.01.972-1.905.972z" class="B"/><mask id="n" maskUnits="userSpaceOnUse" x="321" y="210" width="25" height="3"><path d="M321.967 210.522h23.31v1.95h-23.31v-1.95z" class="B"/></mask><g mask="url(#n)" class="B"><g class="F"><path d="M343.577 212.472h-20.004c-.896 0-1.616-.435-1.607-.972s.745-.978 1.646-.978h20.108c.901 0 1.597.438 1.555.978s-.802.972-1.698.972z"/></g></g><path d="M385.324 206.319h-90.708c-.91 0-1.677-.449-1.71-1.006s.68-1.009 1.595-1.009h91.191c.915 0 1.573.453 1.469 1.009s-.927 1.006-1.837 1.006z" class="B"/><mask id="o" maskUnits="userSpaceOnUse" x="274" y="204" width="10" height="3"><path d="M274.101 204.304h9.762v2.015h-9.762v-2.015z" class="B"/></mask><g mask="url(#o)" class="B"><g class="F"><path d="M275.651 204.304h6.465c.916 0 1.696.453 1.745 1.009s-.653 1.006-1.564 1.006h-6.432c-.91 0-1.699-.449-1.76-1.006s.631-1.009 1.546-1.009z"/></g></g><path d="M398.444 198.921c-.123.574-.972 1.038-1.898 1.038h-85.478c-.924 0-1.683-.464-1.694-1.038s.736-1.045 1.668-1.045h85.938c.932 0 1.587.468 1.464 1.045zm-123.479-1.045h24.259c.93 0 1.705.468 1.727 1.045s-.709 1.039-1.635 1.039h-24.128c-.927 0-1.729-.465-1.792-1.039s.637-1.045 1.569-1.045zm-.709-6.649h93.241c.946 0 1.649.485 1.569 1.081s-.907 1.075-1.85 1.075h-92.731c-.94 0-1.758-.481-1.824-1.075s.648-1.081 1.595-1.081zm60.536-4.649c-.957 0-1.713-.498-1.688-1.112s.829-1.119 1.793-1.119h49.201c.963 0 1.657.502 1.55 1.119s-.971 1.112-1.93 1.112h-48.926zm-61.269-2.231h42.583c.964 0 1.743.501 1.739 1.118s-.78 1.113-1.738 1.113H273.76c-.957 0-1.79-.497-1.858-1.113s.657-1.118 1.621-1.118zm159.07-4.815H315.392c-.975 0-1.769-.515-1.774-1.152s.788-1.159 1.77-1.159h117.869c.979 0 1.624.519 1.437 1.159s-1.125 1.152-2.101 1.152zm2.095-7.3H331.556c-.992 0-1.78-.533-1.758-1.193s.848-1.203 1.847-1.203h103.73c1 0 1.652.54 1.459 1.203s-1.154 1.193-2.146 1.193z" class="B"/><mask id="p" maskUnits="userSpaceOnUse" x="413" y="162" width="27" height="3"><path d="M413.697 162.181h25.39v2.484h-25.39v-2.484z" class="B"/></mask><g mask="url(#p)" class="B"><g class="F"><path d="M436.86 164.665h-21.596c-1.011 0-1.704-.554-1.545-1.237.159-.689 1.113-1.247 2.129-1.247h21.724c1.017 0 1.68.558 1.479 1.247-.199.683-1.181 1.237-2.191 1.237z"/></g></g><path d="M400.154 164.665h-79.301c-1.012 0-1.828-.554-1.823-1.237.005-.689.833-1.247 1.851-1.247h79.769c1.017 0 1.728.558 1.588 1.247-.14.683-1.073 1.237-2.084 1.237zm-122.577 57.703h73.231c.872 0 1.538.411 1.489.916s-.794.913-1.663.913h-72.862c-.868 0-1.617-.409-1.672-.913s.604-.916 1.477-.916zm.602 5.645h112.515c.858 0 1.47.399 1.366.889s-.881.885-1.734.885H278.368c-.854 0-1.591-.395-1.645-.885s.598-.889 1.456-.889zm118.041-71.197h-57.28c-1.029 0-1.837-.575-1.803-1.286s.903-1.292 1.939-1.292h57.625c1.036 0 1.766.579 1.629 1.292s-1.08 1.286-2.11 1.286z" class="B"/><mask id="q" maskUnits="userSpaceOnUse" x="268" y="154" width="57" height="3"><path d="M268.573 154.237h56.008v2.579h-56.008v-2.579z" class="B"/></mask><g mask="url(#q)" class="B"><g class="F"><path d="M322.69 156.815h-52.104c-1.029 0-1.928-.574-2.007-1.285s.696-1.292 1.732-1.292h52.418c1.038 0 1.865.579 1.852 1.292s-.859 1.285-1.891 1.285z"/></g></g><mask id="r" maskUnits="userSpaceOnUse" x="359" y="222" width="10" height="3"><path d="M359.676 222.367h8.835v1.83h-8.835v-1.83z" class="B"/></mask><g mask="url(#r)" class="B"><g class="F"><path d="M367.058 222.368c.873 0 1.52.411 1.446.916s-.835.913-1.702.913h-5.661c-.867 0-1.523-.409-1.461-.913s.817-.916 1.689-.916h5.689z"/></g></g><mask id="s" maskUnits="userSpaceOnUse" x="286" y="216" width="12" height="3"><path d="M286.657 216.54h10.935v1.888h-10.935v-1.888z" class="B"/></mask><g mask="url(#s)" class="B"><g class="F"><path d="M297.591 217.487c.026.521-.667.941-1.548.941h-7.712c-.882 0-1.631-.42-1.673-.941s.644-.947 1.53-.947h7.75c.886 0 1.627.424 1.653.947z"/></g></g><mask id="t" maskUnits="userSpaceOnUse" x="378" y="191" width="13" height="3"><path d="M378.15 191.227h12.481v2.156H378.15v-2.156z" class="B"/></mask><g mask="url(#t)" class="B"><g class="F"><path d="M390.619 192.309c-.113.593-.967 1.075-1.909 1.075h-9.015c-.941 0-1.628-.482-1.535-1.075s.937-1.082 1.885-1.082h9.064c.947 0 1.623.485 1.51 1.082z"/></g></g><mask id="u" maskUnits="userSpaceOnUse" x="409" y="197" width="12" height="3"><path d="M409.565 197.876h10.611v2.083h-10.611v-2.083z" class="B"/></mask><g mask="url(#u)" class="B"><g class="F"><path d="M418.747 197.876c.932 0 1.56.468 1.405 1.045s-1.029 1.039-1.956 1.039h-7.186c-.926 0-1.565-.465-1.427-1.039s1.009-1.045 1.939-1.045h7.225z"/></g></g><mask id="v" maskUnits="userSpaceOnUse" x="299" y="177" width="12" height="3"><path d="M299.381 177.221h11.171v2.311h-11.171v-2.311z" class="B"/></mask><g mask="url(#v)" class="B"><g class="F"><path d="M301.196 179.532c-.976 0-1.788-.515-1.815-1.152s.748-1.159 1.728-1.159h7.651c.98 0 1.782.519 1.792 1.159s-.774 1.152-1.75 1.152h-7.606z"/></g></g><path d="M197.038 142.214c.592 1.985-.553 3.576-2.552 3.576s-4.131-1.591-4.771-3.576c-.649-2.012.478-3.661 2.524-3.661s4.197 1.649 4.799 3.661zm9.864.059c.529 1.984-.668 3.575-2.666 3.575s-4.079-1.591-4.656-3.575c-.583-2.01.596-3.66 2.642-3.66s4.144 1.65 4.68 3.66zm9.979-.059c.464 1.985-.785 3.576-2.783 3.576s-4.029-1.591-4.54-3.576c-.519-2.012.715-3.661 2.761-3.661s4.091 1.649 4.562 3.661z" class="B"/><mask id="w" maskUnits="userSpaceOnUse" x="121" y="129" width="73" height="88"><path d="M121.659 129.005h72.063v87.297h-72.063v-87.297z" class="B"/></mask><g mask="url(#w)" class="B"><g opacity=".1"><path d="M121.659 129.005l32.662 87.298 39.401-87.298h-72.063z"/></g></g><mask id="x" maskUnits="userSpaceOnUse" x="176" y="129" width="135" height="113"><path d="M176.767 129.005H310.552V241.097H176.767V129.005Z" class="B"/></mask><g mask="url(#x)" class="B"><g opacity=".1"><path d="M176.766 241.097l65.362-112.093h68.425l-96.198 112.093h-37.589z"/></g></g><mask id="y" maskUnits="userSpaceOnUse" x="238" y="128" width="122" height="114"><path d="M238.162 128.455H359.381V241.097H238.162V128.455Z" class="B"/></mask><g mask="url(#y)" class="B"><g opacity=".1"><path d="M340.038 128.454L238.162 241.098h15.686l105.534-112.093-19.344-.551z"/></g></g><mask id="z" maskUnits="userSpaceOnUse" x="360" y="129" width="128" height="113"><path d="M360.153 129.005H487.922V241.097H360.153V129.005Z" class="B"/></mask><g mask="url(#z)" class="B"><g opacity=".1"><path d="M360.153 241.097l111.97-112.093h15.799l-115.44 112.093h-12.329z"/></g></g></g><mask id="AA" maskUnits="userSpaceOnUse" x="0" y="0" width="606" height="606"><path d="M0 0h606v606H0V0z" class="B"/></mask><g mask="url(#AA)"><use xlink:href="#Ac" class="B"/><use xlink:href="#Ac" class="C D E H"/><path d="M192.273 299.403h1.946v8.315h-1.946v-8.315zm-.266-2.538c0-.655.53-1.169 1.246-1.169s1.246.483 1.246 1.122c0 .684-.514 1.214-1.246 1.214-.716 0-1.246-.514-1.246-1.167zm6.912 2.101v.498h2.289v1.558h-2.227v6.696h-1.947v-6.696h-1.371v-1.558h1.371v-.528c0-1.744 1.044-2.881 2.974-2.881.671 0 1.324.139 1.76.451l-.545 1.464c-.296-.202-.669-.342-1.074-.342-.81 0-1.23.451-1.23 1.338z" class="I"/><use xlink:href="#Ad" class="B"/><use xlink:href="#Ad" class="C D E H"/><path d="M259.441 304.633h4.718c-.156-1.199-1.075-2.025-2.351-2.025-1.262 0-2.181.811-2.367 2.025zm6.54 1.292h-6.524c.234 1.215 1.246 1.994 2.693 1.994.934 0 1.666-.296 2.258-.904l1.043 1.2c-.748.887-1.915 1.354-3.347 1.354-2.788 0-4.594-1.79-4.594-4.267s1.822-4.251 4.298-4.251c2.429 0 4.203 1.698 4.203 4.299 0 .155-.014.389-.03.575zm1.894-8.019h1.946v11.554h-1.946v-11.554zm3.547 10.729l.748-1.48c.731.484 1.853.826 2.896.826 1.23 0 1.744-.342 1.744-.919 0-1.588-5.138-.093-5.138-3.411 0-1.572 1.417-2.599 3.659-2.599 1.105 0 2.366.264 3.114.716l-.748 1.479c-.794-.467-1.588-.622-2.382-.622-1.184 0-1.744.389-1.744.934 0 1.681 5.139.186 5.139 3.44 0 1.559-1.433 2.571-3.769 2.571-1.386 0-2.771-.405-3.519-.935zm10.211-4.002h4.718c-.156-1.199-1.075-2.025-2.351-2.025-1.261 0-2.18.811-2.367 2.025zm6.54 1.292h-6.524c.234 1.215 1.246 1.994 2.693 1.994.934 0 1.666-.296 2.258-.904l1.043 1.2c-.747.887-1.914 1.354-3.347 1.354-2.788 0-4.594-1.79-4.594-4.267s1.822-4.251 4.298-4.251c2.429 0 4.203 1.698 4.203 4.299 0 .155-.014.389-.03.575z" class="I"/><use xlink:href="#Ae" class="B"/><use xlink:href="#Ae" class="C D E H"/><path d="M341.93 299.971v.498h2.289v1.558h-2.226v6.696h-1.948v-6.696h-1.37v-1.558h1.37v-.528c0-1.744 1.045-2.881 2.974-2.881.67 0 1.325.139 1.761.451l-.546 1.464c-.295-.202-.668-.342-1.073-.342-.81 0-1.231.451-1.231 1.338zm9.683 4.594c0-1.588-1.058-2.601-2.477-2.601-1.401 0-2.459 1.013-2.459 2.601s1.058 2.601 2.459 2.601c1.419 0 2.477-1.012 2.477-2.601zm-6.898 0c0-2.491 1.869-4.251 4.421-4.251 2.586 0 4.439 1.76 4.439 4.251s-1.853 4.267-4.439 4.267c-2.552 0-4.421-1.775-4.421-4.267zm15.533-4.251v1.853a2.48 2.48 0 0 0-.451-.046c-1.48 0-2.414.871-2.414 2.569v4.033h-1.947v-8.316h1.854v1.216c.559-.873 1.572-1.309 2.958-1.309z" class="I"/><use xlink:href="#Af" class="B"/><use xlink:href="#Af" class="C D E H"/><path d="M419.896 302.761h7.179v1.558h-7.179v-1.558zm0-3.768h7.179v1.558h-7.179v-1.558z" class="I"/><use xlink:href="#Ag" class="B"/><use xlink:href="#Ag" class="C D E H"/><path d="M228.519 280.522h3.722v1.558h-1.775v11.46h1.775v1.558h-3.722v-14.576zm8.544 14.576v-1.558h1.759v-11.46h-1.759v-1.558h3.706v14.576h-3.706z" class="I"/><use xlink:href="#Ah" class="B"/><use xlink:href="#Ah" class="C D E H"/><path d="M305.348 286.487c.623.202.919.622.919 1.588v2.959c0 .748.373 1.183 1.153 1.183h.327v1.557h-.78c-1.758 0-2.647-.887-2.647-2.538v-3.208c0-.514-.264-.748-.7-.748h-.514v-1.587h.514c.436 0 .7-.234.7-.748v-3.207c0-1.651.889-2.539 2.647-2.539h.78v1.557h-.327c-.78 0-1.153.437-1.153 1.184v2.958c0 .966-.296 1.386-.919 1.589zm11.875-.795v1.589h-.529c-.42 0-.685.233-.685.747v3.208c0 1.651-.903 2.538-2.663 2.538h-.778v-1.558h.327c.794 0 1.169-.435 1.169-1.182v-2.959c0-.966.278-1.386.903-1.589-.625-.202-.903-.622-.903-1.588v-2.958c0-.748-.375-1.184-1.169-1.184h-.327V279.2h.778c1.76 0 2.663.887 2.663 2.538v3.206c0 .516.265.748.685.748h.529z" class="I"/><use xlink:href="#Ai" class="B"/><use xlink:href="#Ai" class="C D E H"/><path d="M387.301 286.7c0 .343-.077.623-.358 1.339l-.794 2.196h-1.261l.622-2.383c-.435-.186-.731-.591-.731-1.152 0-.779.545-1.292 1.261-1.292.732 0 1.261.529 1.261 1.292zm-2.553-5.933c0-.778.576-1.292 1.276-1.292s1.277.514 1.277 1.292c0 .748-.576 1.292-1.277 1.292s-1.276-.544-1.276-1.292z" class="I"/><use xlink:href="#Aj" class="B"/><use xlink:href="#Aj" class="C D E H"/><path d="M307.572 474.254l-5.371 2.008 5.371 2.009v1.62l-7.178-2.786v-1.683l7.178-2.787v1.619zm5.664-5.653h1.743l-5.138 14.67h-1.744l5.139-14.67zm9.292 6.821v1.683l-7.179 2.787v-1.62l5.373-2.01-5.373-2.008v-1.619l7.179 2.787z" class="I"/><use xlink:href="#Ak" class="B"/><use xlink:href="#Ak" class="C D E H"/><path d="M143.72 380.767h2.304l-.389 7.288h-1.541l-.374-7.288zm-.109 9.794c0-.67.53-1.199 1.262-1.199.716 0 1.229.529 1.229 1.199s-.513 1.214-1.229 1.214c-.732 0-1.262-.544-1.262-1.214zm4.42-3.24h7.179v1.558h-7.179v-1.558zm0-3.767h7.179v1.557h-7.179v-1.557z" class="I"/></g><mask id="AB" maskUnits="userSpaceOnUse" x="0" y="0" width="606" height="606"><path d="M0 0h606v606H0V0z" class="B"/></mask><g mask="url(#AB)" class="B"><use xlink:href="#Al"/></g><mask id="AC" maskUnits="userSpaceOnUse" x="487" y="346" width="59" height="90"><path d="M487.922 384.346c0 25.912 11.049 47.271 25.288 50.294 1.13.233 2.297.363 3.463.363 13.047 0 24.072-15.303 27.586-36.273.765-4.554 1.18-9.39 1.18-14.384 0-27.974-12.878-37.869-28.766-37.869-15.873 0-28.751 9.895-28.751 37.869z" class="B"/></mask><g mask="url(#AC)"><use xlink:href="#Am" class="G"/><mask id="AD" maskUnits="userSpaceOnUse" x="520" y="337" width="36" height="93"><path d="M520.722 337.749h34.845v91.403h-34.845v-91.403z" class="B"/></mask><g mask="url(#AD)" class="B"><g class="F"><use xlink:href="#Am"/></g></g></g><mask id="AE" maskUnits="userSpaceOnUse" x="0" y="0" width="606" height="606"><path d="M0 0h606v606H0V0z" class="B"/></mask><g mask="url(#AE)"><use xlink:href="#Al" class="C D E"/><path d="M532.125 410.084c-1.921 6.454-5.108 12.529-9.432 17.696z" class="B"/><path d="M532.125 410.084c-1.921 6.454-5.108 12.529-9.432 17.696m10.347-21.22l-.498 2.043" class="C D E"/><path d="M532.966 384.28c1.533 6.452 1.685 13.2.574 19.734z" class="B"/><path d="M532.966 384.28c1.533 6.452 1.685 13.2.574 19.734m-45.62-19.666s32.686-12.923 57.513 0" class="C D E"/><path d="M516.677 346.477s3.273 12.122 3.651 31.832z" class="B"/><path d="M516.677 346.477s3.273 12.122 3.651 31.832" class="C D E"/><use xlink:href="#An" fill="silver"/><use xlink:href="#An" class="C D E H"/><path d="M503.78 444.695h-38.323a9.4 9.4 0 0 1-9.322-8.132c-.083-.412-.108-.849-.108-1.297v-90.403a6.96 6.96 0 0 1 .108-1.309c.62-4.594 4.545-8.121 9.322-8.121h108.74c1.649 0 3.187.425 4.521 1.164" class="C D E"/></g></g><defs ><path id="AG" d="M138.503 293.775c0 27.394-22.486 49.602-50.224 49.602s-50.224-22.208-50.224-49.602 22.486-49.603 50.224-49.603 50.224 22.208 50.224 49.603z"/><path id="AH" d="M134.073 291.767c0 24.978-20.504 45.227-45.795 45.227s-45.793-20.249-45.793-45.227 20.502-45.227 45.793-45.227 45.795 20.249 45.795 45.227z"/><path id="AI" d="M196.969 370.018h-14.561v-14.563h14.561v14.563z"/><path id="AJ" d="M222.396 387.762h-14.561v-14.561h14.561v14.561z"/><path id="AK" d="M218.76 423.252h-14.561V408.69h14.561v14.562z"/><path id="AL" d="M415.166 398.038c.643-1.576 1.408-3.197 2.782-4.201s3.534-1.129 4.639.166l-2.881-8.283c-.774-2.087-1.646-4.26-3.37-5.668s-4.562-1.705-6.039-.04c1.054 6.322 1.168 12.8.341 19.155-.449 3.441-1.028 7.399 1.29 9.981.638.521 1.747-.414 1.343-1.132-.193-.338-.879-.361-1.175-.331.744-3.29 1.792-6.525 3.07-9.647z"/><path id="AM" d="M395.83 392.287c.091 2.332.077 4.693.651 6.953s1.833 4.464 3.873 5.596c-1.203-4.517-.553-9.294.105-13.921l1.199-8.435c.138-.975.292-1.993.854-2.804s1.665-1.341 2.562-.929c-1.197.711-2.753-.241-3.474-1.432s-1.008-2.628-1.862-3.726c-1.621-2.083-5.087-2.543-7.483-1.987.726 6.921 3.297 13.531 3.575 20.685z"/><path id="AN" d="M397.993 404.458c-.459-2.061-1.411-3.979-1.978-6.013-1.322-4.74-.492-9.803-1.098-14.686-.784-6.314-4.079-12.282-9.005-16.309l-2.17-.916c2.078 1.593 3.67 3.825 4.369 6.35 1.677 5.788 2.204 11.834 2.948 17.813 1.149 9.222 2.831 18.378 5.04 27.405 1.444-4.421 2.905-9.105 1.894-13.644z"/><path id="AO" d="M374.916 382.904c1.499-1.186 2.303-3.084 2.559-4.979.23-1.696.066-3.414-.136-5.115-.143.729-1.094 1.34-1.905 1.147-1.032-.243-1.71-1.198-2.293-2.084l-.444 1.526-.179-.826-.575.732c.86 2.434 1.686 5.257.361 7.47-.643 1.071-1.702 1.814-2.729 2.526 1.569 1.093 3.841.79 5.341-.397z"/><path id="AP" d="M379.219 422.212c-.777 1.362 2.398 6.767 2.924 8.052l8.014 19.564c-.885-8.588-2.983-17.049-6.213-25.055-.545-1.353-3.184-5.264-4.725-2.561z"/><path id="AQ" d="M383.367 387.645c-.454.688-1.106 1.538-1.895 1.295-.737-.224-.862-1.197-.85-1.968l.222-13.612c-3.663 2.625-3.194 6.067-3.451 9.983-.149 2.268.507 13.085-1.04 14.411a40.54 40.54 0 0 0 9.019-10.976c-.635-.526-1.55.177-2.005.867z"/><path id="AR" d="M208.833 402.672c1.956-2.441 5.983-3.378 8.258-1.233 1.305 1.231 1.745 3.101 2.076 4.865s.66 3.631 1.829 4.991 3.504 1.896 4.733.59l.489 7.962c2.831-4.917 4.291-10.612 4.174-16.285-.057-2.756-.474-5.559.165-8.239s2.721-5.294 5.475-5.419c3.055-.138 5.471 2.836 6.057 5.837s-.1 6.085-.287 9.135c-.284 4.656.628 9.379 2.625 13.592l1.925-3.899 1.733 7.823 1.503-17.218c.142-1.62.298-3.29 1.053-4.732s2.273-2.611 3.892-2.45c2.183.217 3.438 2.546 4.169 4.614 5.46 15.443 3.212 32.41.897 48.626 1.517.27 2.794-1.255 3.172-2.749s.245-3.11.812-4.544 2.322-2.616 3.627-1.795c1.909 1.204.576 4.928 2.583 5.956.623-4.796 2.537-9.419 5.487-13.25 1.344-1.746 3.363-3.476 5.494-2.923 1.592.413 2.63 2.038 2.865 3.665s2.582-5.092 2.177-3.498c.917-9.349-.919-10.335-.001-19.684.166-1.687 2.895-4.613 1.734-5.85-1.104-1.177-4.4-2.899-5.864-2.222s-6.227 3.047-7.173 4.352c-5.955 8.224-5.549 20.132-7.401 30.114-1.58-15.223-3.154-30.697-.362-45.745 1.538-8.3 4.376-16.946 1.695-24.951-1.223-3.653-4.47-7.31-8.26-6.615-3.059.561-4.908 3.643-6.15 6.495-4.172 9.576-6.026 19.972-7.848 30.26l6.833-31.055c.592-2.691 1.185-5.466.697-8.178s-2.342-5.369-5.037-5.936c-2.674-.562-5.33 1.02-7.348 2.864-7.205 6.591-9.885 16.647-12.234 26.123.824-2.475 1.659-5.04 1.404-7.638s-1.906-5.246-4.455-5.806c-3.3-.724-6.299 2.222-7.747 5.274s-2.165 6.561-4.474 9.027c-1.684-1.895-4.849-1.786-6.962-.385s-3.392 3.745-4.424 6.061a56.39 56.39 0 0 0-4.688 27.247c1.671-3.726 5.896-6.13 9.953-5.665l-.723-6.196"/><path id="AS" d="M216.812 422.391l-.307 4.59c.468-1.275 2.338-1.749 3.357-.852-.225-.972.379-1.915.763-2.836s.425-2.229-.472-2.667c-1.065-.522-2.119.703-2.681 1.747l-.14-1.137-.52 1.155z"/><path id="AT" d="M234.198 419.65c-1.249 1.429-2.105 3.2-2.447 5.068.529-.518 1.078-1.049 1.771-1.301s1.577-.144 2.016.45c.273.369.372.902.779 1.112s.939-.043 1.184-.436.281-.875.309-1.336c.056-.883.108-1.787-.148-2.633s-.887-1.638-1.75-1.824-1.889.448-1.896 1.332l.182-.432z"/><path id="AU" d="M251.028 423.828a13.7 13.7 0 0 0-2.541 6.102c.894-.13 1.643-.714 2.355-1.266s1.49-1.112 2.388-1.181 1.913.578 1.885 1.479c-.172-1.016-.009-2.055.1-3.08s.155-2.095-.226-3.052-1.306-1.77-2.336-1.714-1.914 1.258-1.431 2.169l-.194.543z"/><path id="AV" d="M208.268 429.659c1.667-2.579 3.286-6.121 2.839-9.159-.875-5.949-3.586-12.797-2.366-18.686l2.338-11.283"/><path id="AW" d="M553.575 269.469s8.993-1.219 13.265-.581c2.713.406 4.377 1.984 5.173 2.968.369.457.579 1.019.621 1.604l.481 7.027c.056.802-.218 1.599-.775 2.179-1.753 1.826-7.051 5.159-22.729 6.357-22.047 1.685 3.964-19.554 3.964-19.554z"/><path id="AX" d="M547.006 251.301c2.531 3.146 7.361 10.286 7.361 21.367 0 8.376-9.7 36.981-34.534 40.462-26.286 3.685-47.419-18.813-42.906-45.885 3.122-18.726 48.976-42.172 70.079-15.944z"/><path id="AY" d="M519.434 124.092l-406.584 1.854 6.149-9.214a15.94 15.94 0 0 1 13.26-7.092h367.909a15.94 15.94 0 0 1 12.417 5.944l6.849 8.508z"/><path id="AZ" d="M323.229 290.103H300.95c-22.86 0-41.391-18.531-41.391-41.391v-22.279c0-22.86 18.531-41.391 41.392-41.391h22.277c22.86 0 41.392 18.531 41.392 41.391v22.279c0 22.86-18.532 41.391-41.391 41.391z"/><path id="Aa" d="M278.655 246.444v14.936c0 4.687 3.799 8.486 8.485 8.486h51.227c4.664 0 8.441-3.763 8.485-8.427.064-6.719.424-14.995.424-14.995h-68.621z"/><path id="Ab" d="M466.155 251.436H166.542a7.68 7.68 0 0 1-7.152-4.89l-46.213-118.605c-1.21-3.102 1.079-6.45 4.409-6.45h397.526c3.33 0 5.618 3.348 4.41 6.45l-46.215 118.605a7.68 7.68 0 0 1-7.152 4.89z"/><path id="Ac" d="M208.345 289.749h-25.568a6.01 6.01 0 0 0-6.011 6.01v12.44c0 3.319 2.691 6.011 6.011 6.011h6.683l5.063 11.477 7.139-11.477h6.683a6.01 6.01 0 0 0 6.01-6.011v-12.44a6.01 6.01 0 0 0-6.01-6.01z"/><path id="Ad" d="M286.175 291.491h-25.568a6.01 6.01 0 0 0-6.01 6.01v12.44a6.01 6.01 0 0 0 6.01 6.01h6.683l5.064 11.478 7.138-11.478h6.683a6.01 6.01 0 0 0 6.011-6.01v-12.44a6.01 6.01 0 0 0-6.011-6.01z"/><path id="Ae" d="M361.634 290.753h-25.57a6.01 6.01 0 0 0-6.01 6.01v12.44c0 3.318 2.692 6.01 6.01 6.01h6.685l5.063 11.478 7.139-11.478h6.683c3.318 0 6.01-2.692 6.01-6.01v-12.44a6.01 6.01 0 0 0-6.01-6.01z"/><path id="Af" d="M436.003 289.749h-25.57a6.01 6.01 0 0 0-6.01 6.01v12.44c0 3.319 2.691 6.011 6.01 6.011h6.683l5.065 11.477 7.138-11.477h6.684c3.318 0 6.01-2.692 6.01-6.011v-12.44c0-3.319-2.692-6.01-6.01-6.01z"/><path id="Ag" d="M247.319 275.352h-25.57a6.01 6.01 0 0 0-6.009 6.01v12.441a6.01 6.01 0 0 0 6.009 6.01h6.683l5.065 11.477 7.139-11.477h6.683a6.01 6.01 0 0 0 6.01-6.01v-12.441a6.01 6.01 0 0 0-6.01-6.01z"/><path id="Ah" d="M323.336 274.081h-25.568a6.01 6.01 0 0 0-6.01 6.01v12.44a6.01 6.01 0 0 0 6.01 6.01h6.683l5.064 11.478 7.139-11.478h6.682c3.32 0 6.011-2.692 6.011-6.01v-12.44a6.01 6.01 0 0 0-6.011-6.01z"/><path id="Ai" d="M398.548 271.56H372.98a6.01 6.01 0 0 0-6.011 6.009v12.441c0 3.318 2.691 6.01 6.011 6.01h6.683l5.063 11.478 7.139-11.478h6.683a6.01 6.01 0 0 0 6.01-6.01v-12.441a6.01 6.01 0 0 0-6.01-6.009z"/><path id="Aj" d="M298.584 489.041h25.569c3.319 0 6.011-2.692 6.011-6.011v-12.439c0-3.32-2.692-6.011-6.011-6.011h-6.684l-1.95-11.477-10.252 11.477h-6.683a6.01 6.01 0 0 0-6.01 6.011v12.439a6.01 6.01 0 0 0 6.01 6.011z"/><path id="Ak" d="M136.031 398.451h25.568c3.32 0 6.011-2.692 6.011-6.012v-12.44c0-3.318-2.691-6.01-6.011-6.01h-6.681l1.455-11.476-13.659 11.476h-6.683a6.01 6.01 0 0 0-6.01 6.01v12.44a6.01 6.01 0 0 0 6.01 6.012z"/><path id="Al" d="M545.439 384.346c0 4.993-.414 9.831-1.18 14.383-3.514 20.971-14.538 36.274-27.584 36.274-1.168 0-2.335-.13-3.464-.364-14.24-3.021-25.289-24.38-25.289-50.293 0-27.974 12.878-37.869 28.753-37.869 15.887 0 28.764 9.895 28.764 37.869z"/><path id="Am" d="M535.015 384.666c1.07 15.001-1.509 30.081-5.832 44.486 10.834-8.89 15.818-22.876 20.322-36.148 3.269-9.638 6.584-19.574 5.994-29.734s-6.034-20.729-15.568-24.289c-4.659-1.741-10.083-1.612-14.693.237-7.99 3.205-3.616 5.808-.262 11.544 6.004 10.272 9.196 22.079 10.039 33.904z"/><path id="An" d="M521.239 361.221c.42 3.767-.232 6.979-1.458 7.173s-2.557-2.704-2.976-6.471.231-6.979 1.456-7.173 2.558 2.705 2.978 6.471z"/></defs></svg>